<svg width="1944" height="601" viewBox="0 0 1944 601" fill="none" xmlns="http://www.w3.org/2000/svg">
<path d="M818.107 35.4039C836.773 35.4039 852.773 37.6706 866.107 42.2039C879.44 46.4706 889.173 51.6706 895.307 57.8039C896.373 58.8706 897.04 59.9372 897.307 61.0039C897.573 62.0706 897.707 63.4039 897.707 65.0039C897.707 70.0706 897.707 75.8039 897.707 82.2039C897.707 88.6039 897.707 95.0039 897.707 101.404C897.707 107.804 897.707 114.071 897.707 120.204C890.24 120.204 882.507 120.204 874.507 120.204C866.507 120.204 858.64 120.204 850.907 120.204C849.573 120.204 848.507 119.804 847.707 119.004C846.907 118.204 846.507 117.137 846.507 115.804C846.507 113.137 846.507 110.471 846.507 107.804C846.507 105.137 846.507 102.337 846.507 99.4039C846.507 96.2039 846.507 92.8706 846.507 89.4039C846.507 85.9372 846.507 82.0706 846.507 77.8039L857.707 92.2039C851.307 89.2706 845.04 87.2706 838.907 86.2039C833.04 84.8706 826.107 84.2039 818.107 84.2039C810.373 84.2039 803.573 84.7372 797.707 85.8039C792.107 86.8706 787.307 88.7372 783.307 91.4039C779.307 93.8039 776.24 97.0039 774.107 101.004C771.973 104.737 770.907 109.271 770.907 114.604V123.004C770.907 128.071 771.707 132.471 773.307 136.204C775.173 139.937 778.373 143.137 782.907 145.804C787.707 148.471 794.773 151.271 804.107 154.204L842.507 165.804C854.773 169.537 865.04 173.671 873.307 178.204C881.84 182.471 888.507 187.404 893.307 193.004C898.107 198.604 901.573 205.004 903.707 212.204C905.84 219.404 906.907 227.671 906.907 237.004V255.404C906.907 270.871 902.773 284.337 894.507 295.804C886.24 307.004 874.24 315.671 858.507 321.804C843.04 327.671 824.373 330.604 802.507 330.604C789.707 330.604 777.573 329.804 766.107 328.204C754.907 326.604 745.04 324.204 736.507 321.004C728.24 317.537 721.707 313.671 716.907 309.404C716.107 308.604 715.44 307.804 714.907 307.004C714.64 305.937 714.507 304.204 714.507 301.804C714.507 297.004 714.507 292.337 714.507 287.804C714.507 283.271 714.507 278.471 714.507 273.404C714.507 268.337 714.507 263.137 714.507 257.804H722.107C734.107 265.804 746.64 271.804 759.707 275.804C772.773 279.537 788.24 281.404 806.107 281.404C822.64 281.404 834.64 278.737 842.107 273.404C849.84 268.071 853.707 261.671 853.707 254.204V240.604C853.707 236.071 852.907 232.337 851.307 229.404C849.973 226.204 847.04 223.271 842.507 220.604C837.973 217.671 830.773 214.871 820.907 212.204L782.907 200.604C769.84 196.604 759.04 192.071 750.507 187.004C741.973 181.671 735.307 176.071 730.507 170.204C725.973 164.337 722.64 158.071 720.507 151.404C718.64 144.471 717.707 137.271 717.707 129.804V110.604C717.707 99.6706 719.973 89.6706 724.507 80.6039C729.307 71.2706 736.107 63.2706 744.907 56.6039C753.707 49.6706 764.24 44.4706 776.507 41.0039C789.04 37.2706 802.907 35.4039 818.107 35.4039ZM979.151 211.004H1065.15C1069.42 211.004 1073.55 211.004 1077.55 211.004C1081.55 211.004 1085.55 211.004 1089.55 211.004L1103.55 207.404L1109.15 233.004L1114.75 258.204H982.751C981.951 258.204 981.151 258.071 980.351 257.804C979.817 257.271 979.284 256.737 978.751 256.204C978.484 255.404 978.351 254.604 978.351 253.804L979.151 211.004ZM987.551 323.004C979.284 323.004 970.884 323.004 962.351 323.004C953.817 323.004 945.417 323.004 937.151 323.004C936.617 323.004 936.084 322.871 935.551 322.604C935.017 322.337 934.484 321.804 933.951 321.004C933.684 320.204 933.684 319.137 933.951 317.804C935.817 311.137 938.084 302.204 940.751 291.004C943.684 279.537 946.884 266.737 950.351 252.604C953.817 238.204 957.551 223.137 961.551 207.404C965.551 191.404 969.551 175.404 973.551 159.404C977.551 143.404 981.284 127.937 984.751 113.004C988.484 98.0706 991.817 84.6039 994.751 72.6039C997.951 60.6039 1000.62 50.6039 1002.75 42.6039C1017.95 42.6039 1033.55 42.6039 1049.55 42.6039C1065.82 42.6039 1080.35 42.6039 1093.15 42.6039C1094.22 42.6039 1095.02 42.8706 1095.55 43.4039C1096.08 43.6706 1096.48 44.0706 1096.75 44.6039C1097.28 45.1372 1097.68 45.9372 1097.95 47.0039C1101.68 61.9372 1105.68 77.8039 1109.95 94.6039C1114.22 111.404 1118.62 129.137 1123.15 147.804C1127.95 166.204 1132.75 185.404 1137.55 205.404C1142.62 225.404 1147.68 246.071 1152.75 267.404C1154.88 276.204 1157.02 285.271 1159.15 294.604C1161.55 303.937 1163.55 313.404 1165.15 323.004C1157.68 323.004 1149.55 323.004 1140.75 323.004C1131.95 323.004 1123.68 323.004 1115.95 323.004C1114.35 323.004 1113.02 322.871 1111.95 322.604C1111.15 322.071 1110.48 321.271 1109.95 320.204C1109.68 319.137 1109.15 317.537 1108.35 315.404C1102.48 291.137 1097.02 268.871 1091.95 248.604C1086.88 228.071 1082.22 209.271 1077.95 192.204C1073.68 175.137 1069.95 159.671 1066.75 145.804C1063.82 131.671 1061.15 118.871 1058.75 107.404C1056.35 95.9372 1054.48 85.6706 1053.15 76.6039L1068.75 86.2039H1031.55L1047.15 76.6039C1045.55 85.6706 1043.55 95.9372 1041.15 107.404C1038.75 118.604 1035.82 131.271 1032.35 145.404C1029.15 159.537 1025.28 175.404 1020.75 193.004C1016.22 210.337 1011.28 229.804 1005.95 251.404C1000.62 272.737 994.484 296.604 987.551 323.004ZM1229.31 211.004H1315.31C1319.57 211.004 1323.71 211.004 1327.71 211.004C1331.71 211.004 1335.71 211.004 1339.71 211.004L1353.71 207.404L1359.31 233.004L1364.91 258.204H1232.91C1232.11 258.204 1231.31 258.071 1230.51 257.804C1229.97 257.271 1229.44 256.737 1228.91 256.204C1228.64 255.404 1228.51 254.604 1228.51 253.804L1229.31 211.004ZM1237.71 323.004C1229.44 323.004 1221.04 323.004 1212.51 323.004C1203.97 323.004 1195.57 323.004 1187.31 323.004C1186.77 323.004 1186.24 322.871 1185.71 322.604C1185.17 322.337 1184.64 321.804 1184.11 321.004C1183.84 320.204 1183.84 319.137 1184.11 317.804C1185.97 311.137 1188.24 302.204 1190.91 291.004C1193.84 279.537 1197.04 266.737 1200.51 252.604C1203.97 238.204 1207.71 223.137 1211.71 207.404C1215.71 191.404 1219.71 175.404 1223.71 159.404C1227.71 143.404 1231.44 127.937 1234.91 113.004C1238.64 98.0706 1241.97 84.6039 1244.91 72.6039C1248.11 60.6039 1250.77 50.6039 1252.91 42.6039C1268.11 42.6039 1283.71 42.6039 1299.71 42.6039C1315.97 42.6039 1330.51 42.6039 1343.31 42.6039C1344.37 42.6039 1345.17 42.8706 1345.71 43.4039C1346.24 43.6706 1346.64 44.0706 1346.91 44.6039C1347.44 45.1372 1347.84 45.9372 1348.11 47.0039C1351.84 61.9372 1355.84 77.8039 1360.11 94.6039C1364.37 111.404 1368.77 129.137 1373.31 147.804C1378.11 166.204 1382.91 185.404 1387.71 205.404C1392.77 225.404 1397.84 246.071 1402.91 267.404C1405.04 276.204 1407.17 285.271 1409.31 294.604C1411.71 303.937 1413.71 313.404 1415.31 323.004C1407.84 323.004 1399.71 323.004 1390.91 323.004C1382.11 323.004 1373.84 323.004 1366.11 323.004C1364.51 323.004 1363.17 322.871 1362.11 322.604C1361.31 322.071 1360.64 321.271 1360.11 320.204C1359.84 319.137 1359.31 317.537 1358.51 315.404C1352.64 291.137 1347.17 268.871 1342.11 248.604C1337.04 228.071 1332.37 209.271 1328.11 192.204C1323.84 175.137 1320.11 159.671 1316.91 145.804C1313.97 131.671 1311.31 118.871 1308.91 107.404C1306.51 95.9372 1304.64 85.6706 1303.31 76.6039L1318.91 86.2039H1281.71L1297.31 76.6039C1295.71 85.6706 1293.71 95.9372 1291.31 107.404C1288.91 118.604 1285.97 131.271 1282.51 145.404C1279.31 159.537 1275.44 175.404 1270.91 193.004C1266.37 210.337 1261.44 229.804 1256.11 251.404C1250.77 272.737 1244.64 296.604 1237.71 323.004ZM1408.23 43.0039H1602.63C1603.97 43.0039 1605.03 43.4039 1605.83 44.2039C1606.9 45.0039 1607.43 46.0706 1607.43 47.4039C1607.43 55.6706 1607.43 63.1372 1607.43 69.8039C1607.43 76.2039 1607.43 83.5372 1607.43 91.8039H1413.03C1412.23 91.8039 1411.43 91.6706 1410.63 91.4039C1410.1 90.8706 1409.57 90.3372 1409.03 89.8039C1408.5 89.0039 1408.23 88.2039 1408.23 87.4039C1408.23 79.1372 1408.23 71.6706 1408.23 65.0039C1408.23 58.3372 1408.23 51.0039 1408.23 43.0039ZM1536.63 323.004C1527.83 323.004 1519.03 323.004 1510.23 323.004C1501.43 323.004 1492.5 323.004 1483.43 323.004C1482.1 323.004 1481.03 322.604 1480.23 321.804C1479.43 321.004 1479.03 319.937 1479.03 318.604C1479.03 297.004 1479.03 276.071 1479.03 255.804C1479.03 235.537 1479.03 215.271 1479.03 195.004C1479.03 174.471 1479.03 153.937 1479.03 133.404C1479.03 112.604 1479.03 91.6706 1479.03 70.6039H1541.03L1536.63 81.4039C1536.63 86.7372 1536.63 92.4706 1536.63 98.6039C1536.63 104.471 1536.63 110.204 1536.63 115.804C1536.63 121.404 1536.63 126.737 1536.63 131.804C1536.63 148.871 1536.63 165.537 1536.63 181.804C1536.63 197.804 1536.63 214.204 1536.63 231.004C1536.63 247.537 1536.63 265.004 1536.63 283.404C1536.63 290.871 1536.63 297.937 1536.63 304.604C1536.63 311.271 1536.63 317.404 1536.63 323.004ZM1646.88 43.0039C1655.94 43.0039 1664.88 43.0039 1673.68 43.0039C1682.48 43.0039 1691.28 43.0039 1700.08 43.0039C1701.41 43.0039 1702.48 43.4039 1703.28 44.2039C1704.08 45.0039 1704.48 46.0706 1704.48 47.4039C1704.48 70.3372 1704.48 93.2706 1704.48 116.204C1704.48 139.137 1704.48 162.204 1704.48 185.404C1704.48 208.337 1704.48 231.271 1704.48 254.204C1704.48 277.137 1704.48 300.071 1704.48 323.004C1695.68 323.004 1686.88 323.004 1678.08 323.004C1669.28 323.004 1660.34 323.004 1651.28 323.004C1650.48 323.004 1649.68 322.871 1648.88 322.604C1648.34 322.071 1647.81 321.537 1647.28 321.004C1647.01 320.204 1646.88 319.404 1646.88 318.604C1646.88 292.737 1646.88 266.871 1646.88 241.004C1646.88 214.871 1646.88 188.871 1646.88 163.004C1646.88 137.137 1646.88 111.271 1646.88 85.4039C1646.88 78.2039 1646.88 71.1372 1646.88 64.2039C1646.88 57.2706 1646.88 50.2039 1646.88 43.0039ZM1671.68 158.604H1767.68C1771.94 158.604 1776.08 158.604 1780.08 158.604C1784.08 158.604 1788.08 158.604 1792.08 158.604L1806.08 155.004L1817.28 207.404H1676.08C1675.28 207.404 1674.61 207.271 1674.08 207.004C1673.54 206.737 1673.01 206.471 1672.48 206.204C1672.21 205.671 1671.94 205.137 1671.68 204.604C1671.68 204.071 1671.68 203.537 1671.68 203.004V158.604ZM1848.48 323.004C1839.68 323.004 1830.88 323.004 1822.08 323.004C1813.28 323.004 1804.34 323.004 1795.28 323.004C1794.48 323.004 1793.68 322.871 1792.88 322.604C1792.34 322.071 1791.81 321.537 1791.28 321.004C1791.01 320.204 1790.88 319.404 1790.88 318.604C1790.88 295.671 1790.88 272.737 1790.88 249.804C1790.88 226.871 1790.88 203.937 1790.88 181.004C1790.88 157.804 1790.88 134.737 1790.88 111.804C1790.88 88.8706 1790.88 65.9372 1790.88 43.0039C1799.94 43.0039 1808.88 43.0039 1817.68 43.0039C1826.48 43.0039 1835.28 43.0039 1844.08 43.0039C1844.61 43.0039 1845.14 43.1372 1845.68 43.4039C1846.21 43.6706 1846.61 44.0706 1846.88 44.6039C1847.41 44.8706 1847.81 45.2706 1848.08 45.8039C1848.34 46.3372 1848.48 46.8706 1848.48 47.4039C1848.48 66.6039 1848.48 85.9372 1848.48 105.404C1848.48 124.871 1848.48 144.337 1848.48 163.804C1848.48 183.004 1848.48 202.337 1848.48 221.804C1848.48 241.004 1848.48 260.204 1848.48 279.404C1848.48 287.404 1848.48 295.137 1848.48 302.604C1848.48 309.804 1848.48 316.604 1848.48 323.004Z" fill="#FFFF88"/>
<path d="M731.556 454.285H810.927C811.524 454.285 812.021 454.484 812.419 454.882C813.016 455.081 813.414 455.479 813.613 456.076C814.011 456.474 814.209 456.971 814.209 457.568V478.753H734.838C734.241 478.753 733.744 478.654 733.346 478.455C732.948 478.256 732.55 478.057 732.152 477.858C731.953 477.46 731.755 477.062 731.556 476.665C731.556 476.267 731.556 475.869 731.556 475.471C731.556 471.691 731.556 468.21 731.556 465.027C731.556 461.646 731.556 458.065 731.556 454.285ZM734.54 347.164C743.093 347.164 750.851 347.661 757.814 348.656C764.776 349.65 770.943 351.043 776.314 352.833C781.685 354.623 786.36 356.712 790.338 359.099C794.317 361.486 797.599 363.873 800.185 366.261C800.583 366.857 800.881 367.554 801.08 368.349C801.279 368.946 801.379 369.642 801.379 370.438C801.379 374.615 801.379 379.191 801.379 384.164C801.379 389.137 801.379 394.11 801.379 399.083C801.379 403.858 801.379 408.632 801.379 413.406C797.599 413.406 793.82 413.406 790.04 413.406C786.26 413.406 782.481 413.406 778.701 413.406C777.707 413.406 776.911 413.108 776.314 412.511C775.717 411.914 775.419 411.118 775.419 410.124C775.419 406.145 775.419 402.167 775.419 398.188C775.419 394.21 775.419 390.132 775.419 385.954C775.419 381.578 775.419 377.003 775.419 372.228L782.879 386.253C777.11 381.279 770.147 377.898 761.991 376.107C753.835 374.118 743.989 373.123 732.451 373.123C723.897 373.123 716.139 374.317 709.176 376.704C702.413 378.892 696.644 382.473 691.87 387.446C687.295 392.22 683.714 398.288 681.128 405.648C678.741 413.008 677.547 421.761 677.547 431.906V489.794C677.547 498.348 678.741 506.006 681.128 512.77C683.714 519.334 687.295 524.904 691.87 529.479C695.848 533.458 701.02 536.641 707.386 539.028C713.951 541.216 722.007 542.31 731.556 542.31C740.308 542.31 747.768 541.316 753.935 539.326C760.3 537.337 765.274 535.149 768.854 532.762C772.634 530.176 774.922 528.186 775.717 526.794C775.717 519.633 775.717 512.969 775.717 506.802C775.717 500.635 775.717 494.468 775.717 488.302C775.717 482.135 775.717 475.57 775.717 468.608H803.169L801.677 473.979C801.677 485.119 801.677 495.563 801.677 505.31C801.677 514.858 801.677 525.302 801.677 536.641C801.677 537.635 801.578 538.431 801.379 539.028C801.18 539.625 800.782 540.42 800.185 541.415C796.207 546.388 790.736 550.964 783.774 555.141C777.01 559.119 769.252 562.203 760.499 564.391C751.747 566.778 742.795 567.972 733.644 567.972C719.72 567.972 707.486 566.082 696.942 562.302C686.399 558.722 677.647 553.55 670.684 546.786C663.722 540.023 658.45 531.867 654.87 522.318C651.488 512.571 649.797 501.729 649.797 489.794V430.414C649.797 417.285 651.587 405.548 655.168 395.204C658.948 384.86 664.319 376.207 671.281 369.244C678.442 362.083 687.295 356.613 697.838 352.833C708.58 349.053 720.814 347.164 734.54 347.164ZM965.311 457.269C965.311 462.839 965.311 468.409 965.311 473.979C965.311 479.549 965.311 485.218 965.311 490.987C965.311 496.557 965.311 502.127 965.311 507.697C965.311 513.267 965.311 518.837 965.311 524.407C965.311 526.993 965.51 529.181 965.908 530.971C966.505 532.762 967.3 534.154 968.295 535.149C969.29 536.144 970.483 536.84 971.876 537.238C973.268 537.635 974.959 537.834 976.948 537.834C977.346 537.834 977.744 537.834 978.142 537.834C978.739 537.834 979.335 537.834 979.932 537.834H984.408C984.408 541.415 984.408 544.896 984.408 548.278C984.408 551.66 984.408 555.141 984.408 558.722C984.408 559.915 984.11 560.81 983.513 561.407C982.916 561.805 982.12 562.004 981.126 562.004C980.131 562.004 978.54 562.004 976.351 562.004C974.362 562.004 972.472 562.004 970.682 562.004C966.107 562.004 961.83 561.308 957.851 559.915C953.873 558.523 950.392 556.434 947.408 553.649C944.424 550.864 942.136 547.482 940.545 543.504C938.953 539.326 938.158 534.453 938.158 528.883C938.158 521.92 938.158 514.759 938.158 507.399C938.158 499.839 938.158 492.579 938.158 485.616C938.158 482.433 938.158 479.251 938.158 476.068C938.158 472.885 938.158 469.702 938.158 466.519C938.158 463.337 938.158 460.154 938.158 456.971C938.158 449.014 936.964 442.847 934.577 438.471C932.389 433.895 928.609 430.713 923.238 428.922C917.867 426.933 910.606 425.938 901.456 425.938C895.687 425.938 890.117 426.237 884.746 426.834C879.375 427.43 874.103 428.425 868.931 429.817C863.958 431.011 858.885 432.602 853.713 434.592H849.238C849.238 431.011 849.238 427.43 849.238 423.85C849.238 420.269 849.238 416.688 849.238 413.108C849.238 412.511 849.337 412.014 849.536 411.616C849.735 411.218 849.934 410.919 850.133 410.721C851.127 409.527 854.111 408.134 859.084 406.543C864.257 404.952 870.523 403.559 877.883 402.366C885.442 400.973 893.3 400.277 901.456 400.277C912.596 400.277 922.144 401.371 930.101 403.559C938.257 405.548 944.921 408.831 950.093 413.406C955.265 417.981 959.045 423.85 961.432 431.011C964.018 438.172 965.311 446.925 965.311 457.269ZM865.351 519.633C865.351 526.396 867.24 531.568 871.02 535.149C874.999 538.531 880.867 540.221 888.625 540.221C895.388 540.221 901.754 539.326 907.722 537.536C913.889 535.746 919.856 532.762 925.625 528.584C931.394 524.208 937.362 518.24 943.529 510.681V536.641H934.875C931.494 542.808 927.316 547.98 922.343 552.157C917.569 556.335 911.899 559.517 905.335 561.706C898.77 563.894 891.509 564.988 883.552 564.988C874.203 564.988 866.146 563.297 859.383 559.915C852.619 556.335 847.348 551.461 843.568 545.294C839.789 538.928 837.899 531.369 837.899 522.617V513.068C837.899 506.503 838.993 500.635 841.181 495.463C843.369 490.092 846.453 485.616 850.431 482.036C854.609 478.455 859.582 475.67 865.351 473.681C871.119 471.691 877.585 470.697 884.746 470.697C891.708 470.697 898.372 470.697 904.738 470.697C911.303 470.697 917.768 470.697 924.133 470.697C930.499 470.697 936.964 470.697 943.529 470.697C945.319 470.697 946.512 471.791 947.109 473.979C947.905 475.968 948.402 478.455 948.601 481.439C948.8 484.423 948.9 487.307 948.9 490.092C941.539 490.092 934.676 490.092 928.311 490.092C922.144 490.092 915.878 490.092 909.512 490.092C903.147 490.092 896.184 490.092 888.625 490.092C884.448 490.092 880.867 490.589 877.883 491.584C875.098 492.38 872.711 493.872 870.722 496.06C868.931 497.651 867.539 499.74 866.544 502.326C865.748 504.713 865.351 507.498 865.351 510.681V519.633ZM1214.35 562.004C1211.96 562.004 1209.18 562.004 1205.99 562.004C1203.01 562.004 1200.03 562.004 1197.04 562.004C1194.06 562.004 1191.37 562.004 1188.99 562.004C1188.39 562.004 1187.79 561.904 1187.2 561.706C1186.8 561.308 1186.4 560.91 1186 560.512C1185.8 560.114 1185.7 559.517 1185.7 558.722C1185.7 550.765 1185.7 542.907 1185.7 535.149C1185.7 527.192 1185.7 519.434 1185.7 511.875C1185.7 504.116 1185.7 496.657 1185.7 489.495C1185.7 482.135 1185.7 475.073 1185.7 468.31C1185.7 461.546 1185.7 455.181 1185.7 449.213C1185.7 441.654 1184.11 435.984 1180.93 432.205C1177.95 428.425 1173.17 426.535 1166.61 426.535C1161.83 426.535 1157.06 427.928 1152.28 430.713C1147.51 433.299 1142.84 437.078 1138.26 442.051C1133.68 447.025 1129.31 453.291 1125.13 460.85L1121.85 427.132H1133.49C1137.46 420.965 1141.54 415.893 1145.72 411.914C1150.1 407.936 1154.77 404.952 1159.74 402.962C1164.72 400.973 1170.09 399.979 1175.86 399.979C1181.03 399.979 1185.9 400.874 1190.48 402.664C1195.05 404.255 1199.13 406.742 1202.71 410.124C1206.49 413.506 1209.38 417.782 1211.37 422.954C1213.35 428.127 1214.35 434.194 1214.35 441.156C1214.35 446.925 1214.35 453.291 1214.35 460.253C1214.35 467.017 1214.35 474.377 1214.35 482.334C1214.35 490.291 1214.35 498.546 1214.35 507.1C1214.35 515.455 1214.35 523.91 1214.35 532.463C1214.35 537.437 1214.35 542.41 1214.35 547.383C1214.35 552.157 1214.35 557.031 1214.35 562.004ZM1129.61 562.004C1127.42 562.004 1124.73 562.004 1121.55 562.004C1118.37 562.004 1115.18 562.004 1112 562.004C1108.82 562.004 1106.23 562.004 1104.24 562.004C1103.65 562.004 1103.05 561.904 1102.45 561.706C1102.06 561.308 1101.66 560.91 1101.26 560.512C1101.06 560.114 1100.96 559.517 1100.96 558.722C1100.96 550.765 1100.96 542.808 1100.96 534.85C1100.96 526.893 1100.96 519.135 1100.96 511.576C1100.96 504.017 1100.96 496.557 1100.96 489.197C1100.96 481.837 1100.96 474.775 1100.96 468.011C1100.96 461.049 1100.96 454.385 1100.96 448.019C1100.96 443.245 1100.27 439.266 1098.87 436.084C1097.68 432.901 1095.79 430.514 1093.2 428.922C1090.62 427.331 1087.24 426.535 1083.06 426.535C1078.48 426.535 1073.81 427.928 1069.03 430.713C1064.26 433.299 1059.49 437.178 1054.71 442.35C1049.94 447.323 1045.26 453.689 1040.69 461.447L1037.11 427.132H1048.15C1052.13 421.562 1056.3 416.788 1060.68 412.809C1065.06 408.632 1069.73 405.449 1074.7 403.261C1079.88 401.073 1085.25 399.979 1090.82 399.979C1096.59 399.979 1101.86 400.874 1106.63 402.664C1111.41 404.454 1115.48 407.04 1118.86 410.422C1122.25 413.605 1124.83 417.683 1126.62 422.656C1128.61 427.629 1129.61 433.398 1129.61 439.963C1129.61 446.129 1129.61 453.39 1129.61 461.745C1129.61 469.901 1129.61 479.151 1129.61 489.495C1129.61 499.641 1129.61 510.78 1129.61 522.915C1129.61 535.049 1129.61 548.079 1129.61 562.004ZM1044.86 562.004C1043.07 562.004 1041.08 562.004 1038.9 562.004C1036.71 562.004 1034.52 562.004 1032.33 562.004C1030.14 562.004 1027.96 562.004 1025.77 562.004C1023.58 562.004 1021.49 562.004 1019.5 562.004C1018.9 562.004 1018.41 562.004 1018.01 562.004C1017.61 561.805 1017.21 561.606 1016.82 561.407C1016.62 561.009 1016.42 560.611 1016.22 560.214C1016.22 559.816 1016.22 559.318 1016.22 558.722C1016.22 544.797 1016.22 530.872 1016.22 516.947C1016.22 503.022 1016.22 489.097 1016.22 475.173C1016.22 461.049 1016.22 447.025 1016.22 433.1C1016.22 426.933 1016.22 421.363 1016.22 416.39C1016.22 411.218 1016.22 406.841 1016.22 403.261C1017.81 403.261 1019.5 403.261 1021.29 403.261C1023.28 403.261 1025.27 403.261 1027.26 403.261C1029.25 403.261 1031.14 403.261 1032.93 403.261C1034.92 403.261 1036.61 403.261 1038 403.261C1038 403.261 1038.4 404.852 1039.19 408.035C1039.99 411.019 1040.79 414.5 1041.58 418.479C1042.38 422.457 1043.07 426.038 1043.67 429.221C1044.47 432.205 1044.86 433.697 1044.86 433.697C1044.86 445.433 1044.86 458.264 1044.86 472.189C1044.86 486.114 1044.86 500.635 1044.86 515.754C1044.86 530.872 1044.86 546.289 1044.86 562.004ZM1324.94 399.979C1336.67 399.979 1347.41 402.465 1357.16 407.438C1366.91 412.212 1374.67 419.573 1380.44 429.519C1386.4 439.266 1389.39 451.799 1389.39 467.116V488.899C1389.39 489.495 1389.19 490.092 1388.79 490.689C1388.59 491.087 1388.29 491.485 1387.9 491.882C1387.5 492.081 1386.9 492.181 1386.11 492.181H1308.82C1305.44 492.181 1302.06 492.181 1298.68 492.181C1295.3 492.181 1292.01 492.181 1288.83 492.181H1279.88L1276 472.786H1362.53C1362.53 471.791 1362.53 470.796 1362.53 469.802C1362.53 468.807 1362.53 467.812 1362.53 466.818C1362.53 459.06 1361.64 452.396 1359.85 446.826C1358.26 441.057 1355.67 436.382 1352.09 432.801C1348.91 429.817 1345.03 427.629 1340.45 426.237C1335.88 424.645 1330.7 423.85 1324.94 423.85C1312.01 423.85 1302.06 427.331 1295.1 434.293C1288.13 441.057 1284.65 452.197 1284.65 467.713V499.044C1284.65 505.409 1285.55 511.178 1287.34 516.35C1289.13 521.522 1291.62 525.799 1294.8 529.181C1298.78 533.16 1303.95 536.144 1310.31 538.133C1316.88 539.923 1324.44 540.818 1332.99 540.818C1340.55 540.818 1347.02 540.42 1352.39 539.625C1357.96 538.829 1363.13 537.635 1367.9 536.044C1372.68 534.453 1377.55 532.463 1382.52 530.076H1387C1387 533.259 1387 536.541 1387 539.923C1387 543.305 1387 546.687 1387 550.068C1387 550.466 1386.9 550.864 1386.7 551.262C1386.5 551.66 1386.2 552.058 1385.81 552.455C1383.82 554.445 1380.14 556.434 1374.77 558.423C1369.59 560.412 1363.23 562.004 1355.67 563.197C1348.31 564.59 1340.35 565.286 1331.8 565.286C1320.46 565.286 1310.12 563.894 1300.77 561.109C1291.62 558.324 1283.76 554.146 1277.19 548.576C1270.83 543.006 1265.95 536.143 1262.57 527.988C1259.19 519.633 1257.5 509.985 1257.5 499.044V468.011C1257.5 456.474 1259.19 446.428 1262.57 437.874C1266.15 429.32 1271.03 422.258 1277.19 416.688C1283.36 411.118 1290.52 406.941 1298.68 404.156C1306.83 401.371 1315.59 399.979 1324.94 399.979ZM1579.94 489.794C1579.94 501.928 1578.15 512.571 1574.57 521.721C1570.99 530.872 1565.72 538.431 1558.76 544.399C1551.99 550.168 1543.94 554.544 1534.59 557.528C1525.24 560.512 1514.79 562.004 1503.26 562.004C1498.48 562.004 1493.51 562.004 1488.34 562.004C1483.16 562.004 1477.99 562.004 1472.82 562.004C1467.65 562.004 1462.67 562.004 1457.9 562.004C1453.13 562.004 1448.85 562.004 1445.07 562.004C1441.29 562.004 1438.31 562.004 1436.12 562.004C1435.12 562.004 1434.33 561.706 1433.73 561.109C1433.13 560.313 1432.84 559.517 1432.84 558.722C1432.84 542.609 1432.84 526.595 1432.84 510.681C1432.84 494.568 1432.84 478.554 1432.84 462.64C1432.84 446.527 1432.84 430.514 1432.84 414.6C1432.84 398.487 1432.84 382.374 1432.84 366.261H1464.17L1461.48 371.333C1461.48 376.704 1461.48 382.374 1461.48 388.341C1461.48 394.11 1461.48 399.78 1461.48 405.35C1461.48 416.489 1461.48 427.53 1461.48 438.471C1461.48 449.213 1461.48 459.955 1461.48 470.697C1461.48 481.439 1461.48 492.28 1461.48 503.221C1461.48 513.963 1461.48 525.004 1461.48 536.342C1464.86 536.342 1468.74 536.342 1473.12 536.342C1477.69 536.342 1482.47 536.342 1487.44 536.342C1492.41 536.342 1497.39 536.342 1502.36 536.342C1514.1 536.342 1523.65 534.552 1531.01 530.971C1538.56 527.391 1544.04 522.119 1547.42 515.157C1551 507.995 1552.79 498.944 1552.79 488.003V427.132C1552.79 420.965 1552.29 415.495 1551.3 410.721C1550.5 405.946 1549.11 401.769 1547.12 398.188C1545.33 394.608 1542.94 391.524 1539.96 388.938C1536.97 386.352 1533.69 384.363 1530.11 382.97C1526.53 381.379 1522.35 380.285 1517.58 379.688C1512.8 379.091 1507.23 378.793 1500.87 378.793C1493.91 378.793 1486.84 378.793 1479.68 378.793C1472.52 378.793 1465.26 378.793 1457.9 378.793C1450.74 378.793 1443.78 378.793 1437.01 378.793C1430.45 378.793 1424.18 378.793 1418.21 378.793C1417.62 378.793 1417.02 378.693 1416.42 378.494C1416.03 378.097 1415.63 377.699 1415.23 377.301C1415.03 376.704 1414.93 376.107 1414.93 375.511C1414.93 372.129 1414.93 368.449 1414.93 364.47C1414.93 360.492 1414.93 356.712 1414.93 353.131C1420.9 353.131 1427.37 353.131 1434.33 353.131C1441.49 353.131 1448.85 353.131 1456.41 353.131C1463.97 353.131 1471.63 353.131 1479.38 353.131C1487.34 353.131 1495.3 353.131 1503.26 353.131C1515.99 353.131 1527.13 354.623 1536.68 357.607C1546.22 360.591 1554.18 365.166 1560.55 371.333C1567.11 377.301 1571.98 384.761 1575.17 393.712C1578.35 402.664 1579.94 413.207 1579.94 425.342V489.794ZM1683 399.979C1694.74 399.979 1705.48 402.465 1715.23 407.438C1724.98 412.212 1732.73 419.573 1738.5 429.519C1744.47 439.266 1747.45 451.799 1747.45 467.116V488.899C1747.45 489.495 1747.26 490.092 1746.86 490.689C1746.66 491.087 1746.36 491.485 1745.96 491.882C1745.56 492.081 1744.97 492.181 1744.17 492.181H1666.89C1663.51 492.181 1660.13 492.181 1656.74 492.181C1653.36 492.181 1650.08 492.181 1646.9 492.181H1637.95L1634.07 472.786H1720.6C1720.6 471.791 1720.6 470.796 1720.6 469.802C1720.6 468.807 1720.6 467.812 1720.6 466.818C1720.6 459.06 1719.7 452.396 1717.91 446.826C1716.32 441.057 1713.74 436.382 1710.16 432.801C1706.97 429.817 1703.09 427.629 1698.52 426.237C1693.94 424.645 1688.77 423.85 1683 423.85C1670.07 423.85 1660.13 427.331 1653.16 434.293C1646.2 441.057 1642.72 452.197 1642.72 467.713V499.044C1642.72 505.409 1643.62 511.178 1645.41 516.35C1647.2 521.522 1649.68 525.799 1652.87 529.181C1656.84 533.16 1662.02 536.144 1668.38 538.133C1674.95 539.923 1682.51 540.818 1691.06 540.818C1698.62 540.818 1705.08 540.42 1710.45 539.625C1716.02 538.829 1721.2 537.635 1725.97 536.044C1730.74 534.453 1735.62 532.463 1740.59 530.076H1745.07C1745.07 533.259 1745.07 536.541 1745.07 539.923C1745.07 543.305 1745.07 546.687 1745.07 550.068C1745.07 550.466 1744.97 550.864 1744.77 551.262C1744.57 551.66 1744.27 552.058 1743.87 552.455C1741.88 554.445 1738.2 556.434 1732.83 558.423C1727.66 560.412 1721.3 562.004 1713.74 563.197C1706.38 564.59 1698.42 565.286 1689.87 565.286C1678.53 565.286 1668.18 563.894 1658.83 561.109C1649.68 558.324 1641.82 554.146 1635.26 548.576C1628.89 543.006 1624.02 536.143 1620.64 527.988C1617.26 519.633 1615.57 509.985 1615.57 499.044V468.011C1615.57 456.474 1617.26 446.428 1620.64 437.874C1624.22 429.32 1629.09 422.258 1635.26 416.688C1641.43 411.118 1648.59 406.941 1656.74 404.156C1664.9 401.371 1673.65 399.979 1683 399.979ZM1798.8 403.261C1799.4 403.261 1799.9 403.36 1800.29 403.559C1800.69 403.758 1800.99 404.156 1801.19 404.753C1801.59 405.151 1801.88 405.747 1802.08 406.543C1806.86 420.269 1811.63 434.194 1816.41 448.318C1821.18 462.441 1825.95 477.162 1830.73 492.479C1835.7 507.797 1840.67 524.407 1845.65 542.31H1850.12C1853.31 531.767 1856.29 521.522 1859.08 511.576C1862.06 501.63 1865.04 492.081 1868.03 482.931C1871.01 473.581 1874 464.431 1876.98 455.479C1879.96 446.527 1882.85 437.774 1885.63 429.221C1888.62 420.468 1891.5 411.815 1894.29 403.261C1898.46 403.261 1902.64 403.261 1906.82 403.261C1911 403.261 1915.17 403.261 1919.35 403.261C1920.15 403.261 1920.74 403.46 1921.14 403.858C1921.74 404.255 1922.14 404.753 1922.33 405.35C1922.53 405.946 1922.43 406.742 1922.04 407.737C1917.66 420.468 1913.18 433.299 1908.61 446.229C1904.23 458.96 1899.76 471.791 1895.18 484.721C1890.8 497.651 1886.33 510.581 1881.75 523.512C1877.38 536.243 1872.9 549.074 1868.33 562.004C1862.16 562.004 1855.99 562.004 1849.83 562.004C1843.66 562.004 1837.89 562.004 1832.52 562.004C1831.33 562.004 1830.23 561.805 1829.24 561.407C1828.24 561.009 1827.35 560.214 1826.55 559.02C1825.95 557.826 1825.26 556.036 1824.46 553.649C1821.08 544.299 1817.6 534.751 1814.02 525.004C1810.64 515.256 1807.26 505.409 1803.87 495.463C1800.49 485.318 1797.01 475.173 1793.43 465.027C1789.85 454.683 1786.27 444.439 1782.69 434.293C1779.11 423.949 1775.53 413.605 1771.95 403.261C1776.52 403.261 1781 403.261 1785.37 403.261C1789.75 403.261 1794.23 403.261 1798.8 403.261Z" fill="#EEEEEE"/>
<path d="M370.613 122.728L392.843 177.195C427.565 154.595 471.009 163.375 490.378 203.371C510.525 244.931 494.64 302.54 454.55 328.456L457.484 335.67C457.484 335.67 645.64 284.852 570.139 158.831C570.139 158.831 516.437 38.3586 379.633 117.31C376.663 119.024 373.662 120.826 370.613 122.728Z" fill="#FFFF88"/>
<ellipse cx="43.6353" cy="43.6262" rx="43.6353" ry="43.6262" transform="matrix(0.866116 -0.499844 0.500156 0.865935 327.306 43.6217)" fill="#FFFF88"/>
<path d="M171.879 265.861L226.369 243.64C203.759 208.932 212.543 165.506 252.555 146.145C294.132 126.007 351.766 141.885 377.692 181.959L384.909 179.026C384.909 179.026 334.07 -9.05198 207.997 66.4177C207.997 66.4177 87.4739 120.097 166.458 256.844C168.173 259.813 169.976 262.813 171.879 265.861Z" fill="#EEEEEE"/>
<ellipse cx="43.6262" cy="43.6353" rx="43.6262" ry="43.6353" transform="matrix(-0.500156 -0.865935 0.866116 -0.499844 87.292 295.513)" fill="#EEEEEE"/>
<path d="M252.339 476.341L230.108 421.874C195.386 444.474 151.942 435.694 132.573 395.698C112.426 354.138 128.311 296.529 168.401 270.613L165.468 263.399C165.468 263.399 -22.6888 314.217 52.8124 440.238C52.8124 440.238 106.514 560.71 243.318 481.759C246.288 480.045 249.29 478.243 252.339 476.341Z" fill="#FFFF88"/>
<ellipse cx="43.6353" cy="43.6262" rx="43.6353" ry="43.6262" transform="matrix(-0.866116 0.499844 -0.500157 -0.865935 292.921 555.443)" fill="#FFFF88"/>
<path d="M451.067 333.204L396.577 355.426C419.186 390.133 410.403 433.559 370.39 452.92C328.813 473.058 271.18 457.18 245.253 417.106L238.036 420.039C238.036 420.039 288.876 608.117 414.949 532.647C414.949 532.647 535.471 478.968 456.488 342.221C454.773 339.252 452.97 336.252 451.067 333.204Z" fill="#EEEEEE"/>
<ellipse cx="43.6262" cy="43.6353" rx="43.6262" ry="43.6353" transform="matrix(0.500157 0.865935 -0.866116 0.499844 538.388 306.262)" fill="#EEEEEE"/>
<path fill-rule="evenodd" clip-rule="evenodd" d="M292.588 202.692C313.447 182.682 345.958 182.308 367.249 201.1C377.351 208.685 434.486 251.687 442.114 259.632C450.645 268.518 451.049 281.962 443.018 289.666C439.722 292.827 435.511 294.453 431.108 294.746L351.366 298.005L310.693 337.021L304.155 416.529C303.682 420.914 301.883 425.054 298.588 428.215C290.557 435.919 277.135 434.963 268.604 426.077C261.354 418.526 224.291 365.008 214.481 350.791C195.049 328.756 196.286 295.121 217.684 274.585L217.675 274.576L291.652 203.611C291.959 203.302 292.271 202.996 292.588 202.692ZM255.51 297.619L244.741 286.402C243.355 284.959 241.063 284.911 239.619 286.296L231.557 294.03C230.113 295.415 230.066 297.706 231.452 299.15L242.221 310.366L255.248 310.641L255.51 297.619ZM260.247 329.152L271.016 340.369C272.402 341.812 274.694 341.86 276.137 340.475L284.2 332.741C285.643 331.356 285.69 329.065 284.305 327.621L273.536 316.404L260.508 316.13L260.247 329.152ZM272.114 286.958L260.895 297.72L260.629 310.747L273.661 311.017L284.88 300.254C286.324 298.869 286.366 296.573 284.985 295.135L277.241 287.069C275.855 285.625 273.558 285.573 272.114 286.958ZM242.106 315.744L230.882 326.511C229.438 327.896 229.396 330.193 230.777 331.631L238.516 339.692C239.902 341.135 242.194 341.183 243.638 339.798L254.856 329.036L255.123 316.008L242.106 315.744ZM323.406 223.216C327.175 227.142 326.834 233.582 322.645 237.6C318.456 241.619 312.004 241.694 308.236 237.769C304.467 233.843 304.807 227.403 308.996 223.384C313.185 219.366 319.637 219.29 323.406 223.216ZM352.519 253.563C356.288 257.488 355.947 263.929 351.758 267.947C347.569 271.966 341.118 272.041 337.349 268.115C333.58 264.19 333.92 257.75 338.11 253.731C342.299 249.712 348.75 249.637 352.519 253.563ZM322.937 268.269C327.127 264.251 327.06 257.386 322.788 252.937C318.517 248.488 311.658 248.139 307.469 252.157C303.28 256.176 303.347 263.04 307.618 267.49C311.89 271.939 318.748 272.288 322.937 268.269ZM353.138 223.836C357.409 228.285 357.476 235.149 353.287 239.168C349.098 243.187 342.239 242.838 337.968 238.388C333.696 233.939 333.629 227.075 337.819 223.056C342.008 219.038 348.866 219.387 353.138 223.836Z" fill="#EEEEEE"/>
</svg>
