<svg width="695" height="225" viewBox="0 0 695 225" fill="none" xmlns="http://www.w3.org/2000/svg">
<path d="M307.275 83.1588C307.275 87.0999 306.254 91.0411 304.213 94.9822C302.243 98.9233 299.393 102.477 295.663 105.644C292.003 108.811 287.569 111.38 282.361 113.351C277.153 115.321 271.312 116.307 264.837 116.307C261.318 116.307 258.081 116.131 255.125 115.779C252.24 115.427 249.495 114.899 246.891 114.195C244.287 113.491 241.789 112.682 239.396 111.767C237.003 110.782 234.61 109.691 232.217 108.495L237.601 92.4486C239.149 93.5043 241.226 94.6303 243.83 95.8267C246.504 96.9528 249.319 98.0084 252.275 98.9937C255.301 99.979 258.363 100.824 261.459 101.527C264.556 102.161 267.371 102.477 269.904 102.477C275.746 102.477 280.144 101.844 283.1 100.577C284.719 99.8734 286.021 98.2899 287.006 95.8267C288.062 93.3635 288.59 90.1262 288.59 86.1146C288.59 83.2995 287.816 80.9771 286.267 79.1473C284.789 77.2471 282.819 75.5932 280.355 74.1856C277.892 72.7781 275.077 71.5113 271.91 70.3853C268.743 69.2592 265.506 68.0628 262.198 66.796C258.961 65.5292 255.759 64.0865 252.592 62.4678C249.425 60.7787 246.609 58.7378 244.146 56.3449C241.683 53.8817 239.677 50.9611 238.129 47.5829C236.651 44.1344 235.912 39.9822 235.912 35.1261C235.912 31.9591 236.757 28.6162 238.446 25.0973C240.205 21.5785 242.739 18.3763 246.046 15.4908C249.354 12.6053 253.401 10.2125 258.187 8.31229C263.043 6.4121 268.567 5.462 274.76 5.462C279.757 5.462 284.508 5.70832 289.012 6.20097C293.586 6.69361 298.02 7.32701 302.313 8.10116L298.935 24.1472C296.894 23.4435 294.607 22.7749 292.073 22.1415C289.61 21.5081 287.077 20.9802 284.473 20.558C281.869 20.0653 279.335 19.6783 276.872 19.3968C274.409 19.1152 272.227 18.9745 270.327 18.9745C268.286 18.9745 266.139 19.1152 263.887 19.3968C261.705 19.6079 259.911 20.1005 258.503 20.8747C257.096 21.6488 256.075 22.986 255.442 24.8862C254.808 26.7864 254.492 29.0737 254.492 31.748C254.492 34.4927 255.231 36.78 256.709 38.6098C258.257 40.4396 260.263 42.0231 262.726 43.3603C265.189 44.6975 268.004 45.9291 271.171 47.0551C274.338 48.1812 277.576 49.4128 280.883 50.7499C284.191 52.0167 287.428 53.4947 290.595 55.1837C293.762 56.8024 296.578 58.8785 299.041 61.4121C301.504 63.8753 303.475 66.8664 304.952 70.3853C306.501 73.9041 307.275 78.162 307.275 83.1588ZM384.347 114.829L371.679 78.4083L331.036 78.9361L317.84 114.829H303.905L346.765 7.67889L368.09 3.98407L407.994 114.829H384.347ZM368.195 68.1684L351.938 21.5081L334.836 68.1684H368.195ZM480.209 114.829L467.541 78.4083L426.898 78.9361L413.703 114.829H399.768L442.628 7.67889L463.952 3.98407L503.856 114.829H480.209ZM464.058 68.1684L447.8 21.5081L430.699 68.1684H464.058ZM521.811 114.829V18.2355L488.557 17.7077L489.613 6.7288H577.128L576.072 17.391L543.874 18.2355V114.829H521.811ZM653.777 114.829V66.1626H604.9V114.829H582.837V6.7288H604.9V54.0225H653.777V6.7288H675.841V114.829H653.777Z" fill="#FFFF88"/>
<path d="M289.467 170.975L271.305 170.02L272.181 165.798H300.22V199.094C298.521 199.89 296.423 200.687 293.927 201.483C291.431 202.28 288.723 203.023 285.802 203.713C282.882 204.351 279.855 204.882 276.722 205.307C273.589 205.731 270.562 205.944 267.641 205.944C261.747 205.944 256.755 204.935 252.666 202.917C248.577 200.846 245.232 197.952 242.63 194.235C240.081 190.464 238.222 185.977 237.054 180.773C235.886 175.569 235.301 169.781 235.301 163.408C235.301 157.036 236.098 151.327 237.691 146.283C239.337 141.185 241.78 136.857 245.019 133.299C248.312 129.741 252.427 127.033 257.366 125.174C262.304 123.262 268.093 122.307 274.73 122.307C276.377 122.307 278.209 122.386 280.227 122.546C282.298 122.652 284.316 122.811 286.28 123.023C288.298 123.236 290.183 123.475 291.936 123.74C293.741 124.006 295.228 124.245 296.396 124.457L293.529 133.936C292.148 133.511 290.396 133.086 288.272 132.662C286.201 132.184 283.997 131.785 281.66 131.467C279.377 131.095 277.067 130.803 274.73 130.591C272.447 130.325 270.403 130.192 268.597 130.192C265.623 130.192 262.809 130.431 260.154 130.909C257.552 131.387 255.135 132.529 252.905 134.334C251.684 135.29 250.701 136.804 249.958 138.875C249.214 140.946 248.63 143.309 248.205 145.964C247.781 148.619 247.489 151.46 247.329 154.487C247.17 157.514 247.09 160.488 247.09 163.408C247.09 168.772 247.462 173.684 248.205 178.144C248.949 182.552 250.144 186.349 251.79 189.535C253.436 192.721 255.56 195.19 258.162 196.943C260.817 198.695 264.057 199.571 267.88 199.571C269.686 199.571 271.597 199.518 273.615 199.412C275.633 199.253 277.598 199.067 279.51 198.855C281.475 198.642 283.307 198.403 285.006 198.138C286.758 197.872 288.245 197.607 289.467 197.341V170.975ZM354.471 199.173C355.905 199.173 357.79 198.855 360.126 198.217V201.642C358.427 202.545 356.569 203.421 354.551 204.271C352.533 205.121 350.409 205.546 348.178 205.546C346.904 205.546 345.815 205.333 344.912 204.908C344.01 204.537 343.266 204.032 342.682 203.395C342.098 202.705 341.62 201.961 341.248 201.165C340.877 200.368 340.558 199.571 340.292 198.775C338.912 199.678 337.584 200.554 336.31 201.404C335.035 202.253 333.681 203.023 332.247 203.713C330.867 204.351 329.38 204.855 327.787 205.227C326.194 205.652 324.415 205.864 322.45 205.864C317.989 205.864 314.458 204.643 311.856 202.2C309.307 199.704 308.032 195.96 308.032 190.969C308.032 188.314 308.404 186.004 309.148 184.039C309.944 182.021 311.192 180.348 312.891 179.021C314.591 177.64 316.794 176.604 319.503 175.914C322.211 175.224 325.53 174.825 329.459 174.719L339.257 174.401V164.762C339.257 161.736 338.646 159.532 337.425 158.151C336.204 156.717 334.159 156 331.292 156C329.221 156 326.698 156.399 323.724 157.195C320.751 157.939 317.83 158.921 314.962 160.142L313.051 155.045C314.75 154.354 316.529 153.664 318.387 152.974C320.299 152.23 322.237 151.593 324.202 151.062C326.167 150.478 328.158 150.026 330.176 149.708C332.194 149.336 334.186 149.15 336.15 149.15C338.328 149.15 340.266 149.389 341.965 149.867C343.718 150.345 345.178 151.168 346.346 152.336C347.568 153.451 348.47 154.965 349.054 156.877C349.692 158.735 350.01 161.045 350.01 163.807V189.854C350.01 196.067 351.497 199.173 354.471 199.173ZM339.576 195.111C339.576 194.845 339.522 193.332 339.416 190.57C339.31 187.756 339.257 183.8 339.257 178.702C333.469 178.702 329.088 179.074 326.114 179.817C323.14 180.561 321.308 181.304 320.618 182.047C319.981 182.738 319.503 183.72 319.184 184.995C318.919 186.269 318.786 187.756 318.786 189.455C318.786 192.482 319.29 194.819 320.299 196.465C321.361 198.058 323.114 198.855 325.556 198.855C328.158 198.855 330.548 198.563 332.725 197.978C334.903 197.394 337.186 196.438 339.576 195.111ZM399.084 204.829V166.913C399.084 165.639 398.978 164.391 398.765 163.169C398.606 161.895 398.208 160.78 397.57 159.824C396.986 158.815 396.137 157.992 395.022 157.355C393.906 156.717 392.419 156.399 390.561 156.399C389.34 156.399 388.038 156.558 386.658 156.877C385.277 157.195 383.896 157.594 382.516 158.071C381.135 158.549 379.781 159.107 378.453 159.744C377.126 160.381 375.931 161.019 374.869 161.656V204.829H364.116V150.345H373.117L374.71 156.717C375.825 156.027 377.126 155.257 378.613 154.407C380.153 153.505 381.799 152.681 383.551 151.938C385.304 151.141 387.136 150.478 389.047 149.947C391.012 149.416 392.951 149.15 394.862 149.15C397.995 149.15 400.73 149.84 403.067 151.221C405.456 152.602 407.235 154.699 408.404 157.514L409.678 156.717C410.793 156.027 412.094 155.257 413.581 154.407C415.121 153.505 416.767 152.681 418.52 151.938C420.272 151.141 422.104 150.478 424.016 149.947C425.981 149.416 427.919 149.15 429.831 149.15C432.008 149.15 433.999 149.495 435.805 150.186C437.663 150.823 439.256 151.832 440.584 153.213C441.912 154.54 442.947 156.213 443.69 158.231C444.434 160.196 444.806 162.532 444.806 165.24V204.829H434.052V166.913C434.052 165.639 433.946 164.391 433.734 163.169C433.574 161.895 433.176 160.78 432.539 159.824C431.955 158.815 431.105 157.992 429.99 157.355C428.875 156.717 427.388 156.399 425.529 156.399C424.308 156.399 422.98 156.585 421.547 156.956C420.166 157.275 418.759 157.7 417.325 158.231C415.944 158.709 414.563 159.266 413.183 159.903C411.855 160.541 410.66 161.178 409.598 161.815C409.758 162.93 409.837 164.072 409.837 165.24V204.829H399.084ZM478.586 149.15C480.975 149.15 483.312 149.495 485.595 150.186C487.879 150.876 489.95 152.044 491.808 153.69C493.72 155.284 495.366 157.434 496.747 160.142C498.181 162.798 499.243 166.117 499.933 170.099V170.737C499.455 171.321 498.791 171.852 497.942 172.33C497.145 172.808 496.083 173.232 494.755 173.604C493.428 173.976 491.782 174.321 489.817 174.64C487.905 174.905 485.595 175.118 482.887 175.277L465.204 176.472V179.897C465.204 186.322 466.345 190.995 468.629 193.916C470.912 196.837 474.364 198.297 478.984 198.297C480.896 198.297 482.86 198.111 484.878 197.739C486.949 197.368 488.914 196.916 490.773 196.385C492.631 195.854 494.304 195.323 495.791 194.792C497.331 194.208 498.526 193.704 499.375 193.279L500.73 196.385C499.19 197.394 497.464 198.456 495.552 199.571C493.64 200.687 491.569 201.722 489.339 202.678C487.162 203.581 484.852 204.324 482.409 204.908C480.019 205.546 477.55 205.864 475.001 205.864C471.974 205.864 469.16 205.386 466.558 204.43C464.009 203.475 461.778 201.935 459.867 199.81C457.955 197.686 456.442 194.925 455.326 191.526C454.264 188.075 453.733 183.906 453.733 179.021C453.733 173.551 454.371 168.904 455.645 165.081C456.92 161.258 458.672 158.178 460.902 155.841C463.133 153.505 465.761 151.805 468.788 150.743C471.815 149.681 475.081 149.15 478.586 149.15ZM469.585 157.036C469 157.461 468.443 158.151 467.912 159.107C467.434 160.01 467.009 161.125 466.637 162.452C466.266 163.727 465.947 165.134 465.682 166.674C465.469 168.214 465.363 169.781 465.363 171.374L488.144 170.418C487.879 168.612 487.48 166.807 486.949 165.001C486.471 163.143 485.781 161.497 484.878 160.063C484.029 158.629 482.94 157.461 481.612 156.558C480.285 155.655 478.665 155.204 476.753 155.204C475.479 155.204 474.205 155.337 472.93 155.602C471.709 155.868 470.594 156.346 469.585 157.036ZM520.331 198.855C521.977 199.12 523.809 199.359 525.827 199.571C527.898 199.731 530.235 199.81 532.837 199.81C537.988 199.864 542.608 199.465 546.697 198.616C550.785 197.713 554.131 196.332 556.733 194.474C558.007 193.571 559.255 192.349 560.477 190.809C561.751 189.216 562.866 187.145 563.822 184.596C564.778 182.047 565.548 178.941 566.132 175.277C566.769 171.613 567.088 167.232 567.088 162.134C567.088 155.815 566.159 150.504 564.3 146.203C562.442 141.848 559.972 138.344 556.892 135.689C553.812 133.033 550.254 131.148 546.219 130.033C542.183 128.865 538.014 128.281 533.713 128.281C531.854 128.281 530.288 128.307 529.013 128.36C527.792 128.413 526.703 128.493 525.747 128.599C524.792 128.652 523.889 128.732 523.039 128.838C522.243 128.944 521.34 129.051 520.331 129.157V198.855ZM509.259 123.9C511.011 123.687 513.029 123.501 515.313 123.342C517.596 123.13 519.959 122.97 522.402 122.864C524.898 122.705 527.42 122.599 529.969 122.546C532.518 122.439 534.987 122.386 537.377 122.386C543.59 122.386 549.219 123.183 554.264 124.776C559.362 126.316 563.716 128.679 567.327 131.865C570.938 135.051 573.726 139.061 575.691 143.893C577.656 148.725 578.638 154.381 578.638 160.859C578.638 167.391 577.735 173.418 575.93 178.941C574.124 184.411 571.416 189.11 567.805 193.04C564.194 196.969 559.707 200.049 554.343 202.28C548.98 204.457 542.74 205.546 535.625 205.546C530.898 205.546 526.199 205.413 521.526 205.147C516.853 204.882 512.764 204.563 509.259 204.191V123.9ZM610.825 149.15C613.214 149.15 615.551 149.495 617.834 150.186C620.118 150.876 622.189 152.044 624.048 153.69C625.959 155.284 627.605 157.434 628.986 160.142C630.42 162.798 631.482 166.117 632.172 170.099V170.737C631.694 171.321 631.031 171.852 630.181 172.33C629.384 172.808 628.322 173.232 626.995 173.604C625.667 173.976 624.021 174.321 622.056 174.64C620.144 174.905 617.834 175.118 615.126 175.277L597.443 176.472V179.897C597.443 186.322 598.585 190.995 600.868 193.916C603.151 196.837 606.603 198.297 611.223 198.297C613.135 198.297 615.1 198.111 617.118 197.739C619.189 197.368 621.153 196.916 623.012 196.385C624.871 195.854 626.543 195.323 628.03 194.792C629.57 194.208 630.765 193.704 631.615 193.279L632.969 196.385C631.429 197.394 629.703 198.456 627.791 199.571C625.88 200.687 623.809 201.722 621.578 202.678C619.401 203.581 617.091 204.324 614.648 204.908C612.259 205.546 609.789 205.864 607.24 205.864C604.214 205.864 601.399 205.386 598.797 204.43C596.248 203.475 594.018 201.935 592.106 199.81C590.194 197.686 588.681 194.925 587.566 191.526C586.504 188.075 585.973 183.906 585.973 179.021C585.973 173.551 586.61 168.904 587.884 165.081C589.159 161.258 590.911 158.178 593.142 155.841C595.372 153.505 598 151.805 601.027 150.743C604.054 149.681 607.32 149.15 610.825 149.15ZM601.824 157.036C601.24 157.461 600.682 158.151 600.151 159.107C599.673 160.01 599.248 161.125 598.877 162.452C598.505 163.727 598.186 165.134 597.921 166.674C597.708 168.214 597.602 169.781 597.602 171.374L620.383 170.418C620.118 168.612 619.72 166.807 619.189 165.001C618.711 163.143 618.02 161.497 617.118 160.063C616.268 158.629 615.179 157.461 613.852 156.558C612.524 155.655 610.905 155.204 608.993 155.204C607.718 155.204 606.444 155.337 605.169 155.602C603.948 155.868 602.833 156.346 601.824 157.036ZM630.825 150.982C631.249 150.876 631.78 150.743 632.418 150.584C633.108 150.425 633.798 150.292 634.489 150.186C635.232 150.026 635.975 149.92 636.719 149.867C637.462 149.761 638.153 149.708 638.79 149.708C640.33 149.708 641.711 149.894 642.932 150.265C644.153 150.584 645.189 151.248 646.039 152.257C647.154 153.584 648.428 155.841 649.862 159.027C651.296 162.16 652.783 165.798 654.323 169.94C655.863 174.029 657.403 178.383 658.943 183.003C660.483 187.623 661.89 192.057 663.164 196.306H663.403C665.952 192.27 668.076 188.499 669.776 184.995C671.475 181.49 672.829 178.144 673.838 174.958C674.847 171.719 675.537 168.639 675.909 165.718C676.334 162.745 676.546 159.797 676.546 156.877C676.546 155.974 676.467 154.991 676.307 153.929C676.148 152.814 675.962 151.938 675.75 151.301L684.99 149.309C685.255 150.053 685.468 151.009 685.627 152.177C685.786 153.345 685.866 154.46 685.866 155.522C685.866 159.611 685.202 163.807 683.874 168.108C682.6 172.409 680.927 176.684 678.856 180.932C676.838 185.181 674.581 189.323 672.086 193.358C669.643 197.394 667.227 201.218 664.837 204.829H655.278C653.685 199.412 651.986 194.075 650.181 188.818C648.375 183.561 646.623 178.755 644.923 174.401C643.224 170.046 641.631 166.302 640.144 163.169C638.657 159.983 637.436 157.779 636.48 156.558C635.896 155.815 635.259 155.257 634.568 154.885C633.878 154.46 632.869 154.248 631.541 154.248H630.825V150.982Z" fill="#EEEEEE"/>
<path d="M132.58 43.8695L140.527 63.3389C152.938 55.2604 168.467 58.3988 175.391 72.6954C182.592 87.5511 176.914 108.144 162.584 117.407L163.633 119.986C163.633 119.986 230.89 101.821 203.902 56.7745C203.902 56.7745 184.706 13.7113 135.805 41.9325C134.743 42.5453 133.67 43.1895 132.58 43.8695Z" fill="#FFFF88"/>
<ellipse cx="15.5975" cy="15.5943" rx="15.5975" ry="15.5943" transform="matrix(0.866116 -0.499844 0.500156 0.865935 117.1 15.5927)" fill="#FFFF88"/>
<path d="M61.5425 95.0325L81.02 87.0895C72.9381 74.6832 76.0779 59.1606 90.3805 52.2398C105.242 45.0414 125.843 50.7171 135.111 65.0415L137.691 63.9933C137.691 63.9933 119.518 -3.23566 74.4529 23.7412C74.4529 23.7412 31.3718 42.929 59.6048 91.8095C60.2177 92.8708 60.8622 93.9431 61.5425 95.0325Z" fill="#EEEEEE"/>
<ellipse cx="15.5943" cy="15.5975" rx="15.5943" ry="15.5975" transform="matrix(-0.500156 -0.865935 0.866116 -0.499844 31.3069 105.632)" fill="#EEEEEE"/>
<path d="M90.3033 170.269L82.357 150.8C69.9455 158.878 54.4164 155.74 47.4928 141.443C40.2913 126.587 45.9694 105.995 60.2998 96.7313L59.2511 94.1527C59.2511 94.1527 -8.00587 112.318 18.9822 157.364C18.9822 157.364 38.178 200.427 87.079 172.206C88.1407 171.593 89.2135 170.949 90.3033 170.269Z" fill="#FFFF88"/>
<ellipse cx="15.5975" cy="15.5943" rx="15.5975" ry="15.5943" transform="matrix(-0.866116 0.499844 -0.500157 -0.865935 104.81 198.545)" fill="#FFFF88"/>
<path d="M161.339 119.105L141.861 127.048C149.943 139.454 146.803 154.977 132.501 161.897C117.639 169.096 97.0378 163.42 87.7703 149.096L85.1907 150.144C85.1907 150.144 103.363 217.373 148.428 190.396C148.428 190.396 191.51 171.208 163.277 122.328C162.664 121.266 162.019 120.194 161.339 119.105Z" fill="#EEEEEE"/>
<ellipse cx="15.5943" cy="15.5975" rx="15.5943" ry="15.5975" transform="matrix(0.500157 0.865935 -0.866116 0.499844 192.552 109.474)" fill="#EEEEEE"/>
<path fill-rule="evenodd" clip-rule="evenodd" d="M104.69 72.453C112.146 65.3007 123.767 65.1667 131.377 71.8828C134.985 74.5917 155.412 89.966 158.139 92.8062C161.188 95.9824 161.333 100.788 158.462 103.542C157.284 104.672 155.778 105.253 154.205 105.358L125.7 106.523L111.162 120.469L108.825 148.89C108.656 150.457 108.013 151.937 106.835 153.067C103.964 155.82 99.1667 155.479 96.1172 152.302C93.526 149.603 80.2783 130.475 76.7712 125.392C69.8247 117.515 70.2668 105.492 77.9156 98.1513L77.9124 98.1479L104.356 72.7813C104.466 72.6709 104.577 72.5614 104.69 72.453ZM91.4368 106.385L87.5874 102.375C87.092 101.859 86.2727 101.842 85.7566 102.337L82.8747 105.102C82.3587 105.597 82.3419 106.416 82.8373 106.932L86.6867 110.941L91.3433 111.039L91.4368 106.385ZM93.1301 117.656L96.9794 121.666C97.4748 122.182 98.2941 122.199 98.8102 121.704L101.692 118.939C102.208 118.444 102.225 117.625 101.73 117.109L97.8802 113.1L93.2235 113.001L93.1301 117.656ZM97.3721 102.574L93.3619 106.421L93.2665 111.077L97.925 111.174L101.935 107.327C102.451 106.832 102.466 106.011 101.973 105.497L99.2046 102.614C98.7093 102.098 97.8882 102.079 97.3721 102.574ZM86.6455 112.864L82.6334 116.712C82.1174 117.207 82.1024 118.028 82.596 118.542L85.3623 121.424C85.8577 121.94 86.677 121.957 87.193 121.462L91.2033 117.615L91.2986 112.958L86.6455 112.864ZM115.706 79.7892C117.054 81.1924 116.932 83.4945 115.434 84.9309C113.937 86.3674 111.631 86.3943 110.284 84.991C108.936 83.5878 109.058 81.2857 110.556 79.8493C112.053 78.4128 114.359 78.3859 115.706 79.7892ZM126.113 90.6367C127.46 92.0399 127.338 94.342 125.841 95.7784C124.343 97.2149 122.037 97.2418 120.69 95.8385C119.343 94.4353 119.465 92.1332 120.962 90.6968C122.46 89.2603 124.766 89.2334 126.113 90.6367ZM115.539 95.8935C117.036 94.457 117.012 92.0033 115.486 90.413C113.959 88.8226 111.507 88.6979 110.01 90.1343C108.512 91.5708 108.536 94.0245 110.063 95.6148C111.59 97.2052 114.041 97.3299 115.539 95.8935ZM126.334 80.0107C127.861 81.6011 127.885 84.0548 126.388 85.4912C124.89 86.9277 122.439 86.8029 120.912 85.2126C119.385 83.6222 119.361 81.1685 120.858 79.7321C122.356 78.2956 124.808 78.4204 126.334 80.0107Z" fill="#EEEEEE"/>
</svg>
