<svg width="695" height="342" viewBox="0 0 695 342" fill="none" xmlns="http://www.w3.org/2000/svg">
<rect x="364.348" y="268.089" width="315.072" height="73.2544" rx="11.7881" fill="#081D1F"/>
<path d="M456.666 305.809V278.045H463.04V289.033H474.653V278.045H481.066V305.809H474.653V294.625H463.04V305.809H456.666ZM495.723 285.592C498.825 285.592 501.249 286.479 502.996 288.251C504.769 290.024 505.655 292.422 505.655 295.446C505.655 297.506 505.212 299.343 504.325 300.96C503.439 302.576 502.188 303.853 500.571 304.792C498.955 305.73 497.052 306.2 494.862 306.2C491.786 306.2 489.362 305.313 487.589 303.541C485.843 301.768 484.969 299.383 484.969 296.385C484.969 294.299 485.412 292.448 486.299 290.832C487.185 289.216 488.436 287.938 490.053 287C491.669 286.061 493.559 285.592 495.723 285.592ZM495.136 300.999C496.466 300.999 497.521 300.504 498.303 299.513C499.112 298.496 499.516 297.141 499.516 295.446C499.516 293.986 499.164 292.852 498.46 292.044C497.756 291.21 496.791 290.793 495.566 290.793C494.211 290.793 493.129 291.301 492.321 292.318C491.539 293.309 491.148 294.651 491.148 296.346C491.148 297.805 491.486 298.952 492.164 299.787C492.868 300.595 493.859 300.999 495.136 300.999ZM509.28 305.809V285.905H515.224L514.989 290.011C515.823 288.473 516.866 287.352 518.117 286.648C519.368 285.944 520.698 285.592 522.106 285.592C523.487 285.592 524.726 285.944 525.82 286.648C526.915 287.326 527.75 288.434 528.323 289.972C529.209 288.486 530.33 287.391 531.686 286.687C533.068 285.957 534.462 285.592 535.87 285.592C538.216 285.592 539.976 286.4 541.149 288.017C542.322 289.607 542.895 291.901 542.869 294.899L542.791 305.809H536.808L536.887 295.016C536.887 293.817 536.665 292.878 536.222 292.201C535.779 291.497 535.101 291.145 534.189 291.145C533.485 291.145 532.82 291.366 532.194 291.81C531.595 292.253 531.06 293.022 530.591 294.117C530.122 295.212 529.744 296.711 529.457 298.614C529.196 300.517 529.04 302.915 528.988 305.809H523.044V295.016C523.044 293.817 522.836 292.878 522.418 292.201C522.001 291.497 521.337 291.145 520.424 291.145C519.72 291.145 519.056 291.366 518.43 291.81C517.83 292.253 517.296 293.022 516.827 294.117C516.357 295.212 515.979 296.711 515.693 298.614C515.406 300.517 515.25 302.915 515.224 305.809H509.28ZM556.938 306.2C554.722 306.2 552.806 305.795 551.19 304.987C549.573 304.153 548.322 302.993 547.436 301.507C546.549 299.995 546.106 298.209 546.106 296.15C546.106 294.065 546.549 292.227 547.436 290.637C548.348 289.046 549.56 287.808 551.072 286.922C552.61 286.035 554.344 285.592 556.273 285.592C558.463 285.592 560.248 286.088 561.63 287.078C563.012 288.069 563.963 289.476 564.485 291.301C565.032 293.1 565.149 295.199 564.837 297.597H552.206C552.363 298.587 552.884 299.422 553.77 300.099C554.657 300.751 555.869 301.077 557.407 301.077C558.111 301.077 558.854 300.934 559.636 300.647C560.418 300.334 561.083 299.878 561.63 299.278L564.954 302.798C564.094 303.84 563.025 304.675 561.747 305.3C560.496 305.9 558.893 306.2 556.938 306.2ZM556.39 289.933C555.347 289.933 554.461 290.245 553.731 290.871C553.027 291.497 552.558 292.37 552.324 293.491H559.792C559.818 292.266 559.518 291.366 558.893 290.793C558.293 290.219 557.459 289.933 556.39 289.933ZM590.21 278.045L589.388 283.637H580.981V305.809H574.568V283.637H565.77V278.045H590.21ZM598.714 306.2C596.498 306.2 594.582 305.795 592.966 304.987C591.349 304.153 590.098 302.993 589.212 301.507C588.325 299.995 587.882 298.209 587.882 296.15C587.882 294.065 588.325 292.227 589.212 290.637C590.124 289.046 591.336 287.808 592.848 286.922C594.386 286.035 596.12 285.592 598.049 285.592C600.239 285.592 602.025 286.088 603.406 287.078C604.788 288.069 605.739 289.476 606.261 291.301C606.808 293.1 606.925 295.199 606.613 297.597H593.982C594.139 298.587 594.66 299.422 595.546 300.099C596.433 300.751 597.645 301.077 599.183 301.077C599.887 301.077 600.63 300.934 601.412 300.647C602.194 300.334 602.859 299.878 603.406 299.278L606.73 302.798C605.87 303.84 604.801 304.675 603.524 305.3C602.272 305.9 600.669 306.2 598.714 306.2ZM598.166 289.933C597.124 289.933 596.237 290.245 595.507 290.871C594.804 291.497 594.334 292.37 594.1 293.491H601.568C601.594 292.266 601.295 291.366 600.669 290.793C600.069 290.219 599.235 289.933 598.166 289.933ZM629.835 285.983V305.809H623.813L624.009 302.837C622.575 305.079 620.45 306.2 617.635 306.2C615.862 306.2 614.35 305.795 613.099 304.987C611.848 304.179 610.896 303.058 610.244 301.624C609.593 300.191 609.267 298.548 609.267 296.698C609.267 294.482 609.723 292.54 610.635 290.871C611.548 289.203 612.773 287.912 614.311 287C615.849 286.061 617.57 285.592 619.473 285.592C620.724 285.592 621.832 285.853 622.796 286.374C623.761 286.87 624.504 287.534 625.025 288.369L625.534 285.983H629.835ZM620.059 290.793C618.625 290.793 617.491 291.327 616.657 292.396C615.849 293.465 615.445 294.834 615.445 296.502C615.445 297.936 615.758 299.044 616.384 299.826C617.035 300.608 617.909 300.999 619.003 300.999C620.333 300.999 621.467 300.451 622.405 299.357C623.37 298.262 623.852 296.828 623.852 295.055C623.852 293.726 623.513 292.683 622.836 291.927C622.158 291.171 621.232 290.793 620.059 290.793ZM634.456 305.809V285.905H640.399L640.165 290.011C640.999 288.473 642.042 287.352 643.293 286.648C644.544 285.944 645.874 285.592 647.281 285.592C648.663 285.592 649.901 285.944 650.996 286.648C652.091 287.326 652.925 288.434 653.499 289.972C654.385 288.486 655.506 287.391 656.862 286.687C658.243 285.957 659.638 285.592 661.046 285.592C663.392 285.592 665.152 286.4 666.325 288.017C667.498 289.607 668.071 291.901 668.045 294.899L667.967 305.809H661.984L662.062 295.016C662.062 293.817 661.841 292.878 661.398 292.201C660.954 291.497 660.277 291.145 659.364 291.145C658.66 291.145 657.996 291.366 657.37 291.81C656.77 292.253 656.236 293.022 655.767 294.117C655.298 295.212 654.92 296.711 654.633 298.614C654.372 300.517 654.216 302.915 654.164 305.809H648.22V295.016C648.22 293.817 648.011 292.878 647.594 292.201C647.177 291.497 646.512 291.145 645.6 291.145C644.896 291.145 644.231 291.366 643.606 291.81C643.006 292.253 642.472 293.022 642.003 294.117C641.533 295.212 641.155 296.711 640.869 298.614C640.582 300.517 640.425 302.915 640.399 305.809H634.456Z" fill="#CCD0BF"/>
<path d="M515.078 325.54H522.353V334.809H519.256L518.968 333.224C518.423 333.88 517.719 334.352 516.855 334.64C516.006 334.913 515.11 335.049 514.165 335.049C512.469 335.049 510.996 334.712 509.748 334.04C508.515 333.368 507.555 332.407 506.866 331.159C506.194 329.894 505.858 328.382 505.858 326.621C505.858 324.828 506.242 323.251 507.01 321.891C507.795 320.514 508.899 319.442 510.324 318.673C511.748 317.905 513.421 317.521 515.342 317.521C516.959 317.521 518.319 317.809 519.424 318.385C520.544 318.945 521.481 319.802 522.233 320.954L519.232 323.139C518.832 322.419 518.279 321.899 517.575 321.579C516.871 321.242 516.126 321.074 515.342 321.074C514.222 321.074 513.261 321.307 512.461 321.771C511.66 322.219 511.036 322.859 510.588 323.692C510.156 324.508 509.94 325.46 509.94 326.549C509.94 328.134 510.356 329.358 511.188 330.222C512.021 331.087 513.165 331.519 514.622 331.519C515.198 331.519 515.774 331.423 516.35 331.231C516.927 331.023 517.415 330.711 517.815 330.295C518.231 329.878 518.479 329.358 518.559 328.734H515.078V325.54ZM536.845 322.635V334.809H533.148L533.268 332.984C532.387 334.36 531.083 335.049 529.354 335.049C528.266 335.049 527.337 334.801 526.569 334.304C525.801 333.808 525.216 333.12 524.816 332.239C524.416 331.359 524.216 330.351 524.216 329.214C524.216 327.853 524.496 326.661 525.056 325.636C525.616 324.612 526.369 323.82 527.313 323.259C528.258 322.683 529.314 322.395 530.483 322.395C531.251 322.395 531.931 322.555 532.524 322.875C533.116 323.179 533.572 323.588 533.892 324.1L534.204 322.635H536.845ZM530.843 325.588C529.962 325.588 529.266 325.917 528.754 326.573C528.258 327.229 528.01 328.07 528.01 329.094C528.01 329.974 528.202 330.655 528.586 331.135C528.986 331.615 529.522 331.855 530.194 331.855C531.011 331.855 531.707 331.519 532.283 330.847C532.876 330.174 533.172 329.294 533.172 328.206C533.172 327.389 532.964 326.749 532.548 326.285C532.131 325.821 531.563 325.588 530.843 325.588ZM539.683 334.809V322.587H543.332L543.188 325.108C543.7 324.164 544.341 323.475 545.109 323.043C545.877 322.611 546.694 322.395 547.558 322.395C548.407 322.395 549.167 322.611 549.839 323.043C550.511 323.459 551.024 324.14 551.376 325.084C551.92 324.172 552.608 323.499 553.441 323.067C554.289 322.619 555.146 322.395 556.01 322.395C557.451 322.395 558.531 322.891 559.251 323.884C559.972 324.86 560.324 326.269 560.308 328.11L560.26 334.809H556.586L556.634 328.182C556.634 327.445 556.498 326.869 556.226 326.453C555.954 326.021 555.538 325.805 554.977 325.805C554.545 325.805 554.137 325.941 553.753 326.213C553.385 326.485 553.057 326.957 552.768 327.629C552.48 328.302 552.248 329.222 552.072 330.391C551.912 331.559 551.816 333.032 551.784 334.809H548.134V328.182C548.134 327.445 548.006 326.869 547.75 326.453C547.494 326.021 547.086 325.805 546.526 325.805C546.093 325.805 545.685 325.941 545.301 326.213C544.933 326.485 544.605 326.957 544.317 327.629C544.029 328.302 543.796 329.222 543.62 330.391C543.444 331.559 543.348 333.032 543.332 334.809H539.683ZM568.946 335.049C567.586 335.049 566.409 334.801 565.417 334.304C564.424 333.792 563.656 333.08 563.112 332.167C562.567 331.239 562.295 330.142 562.295 328.878C562.295 327.597 562.567 326.469 563.112 325.492C563.672 324.516 564.416 323.756 565.345 323.211C566.289 322.667 567.354 322.395 568.538 322.395C569.883 322.395 570.979 322.699 571.828 323.307C572.676 323.916 573.26 324.78 573.58 325.901C573.916 327.005 573.988 328.294 573.796 329.766H566.041C566.137 330.375 566.457 330.887 567.001 331.303C567.546 331.703 568.29 331.903 569.234 331.903C569.667 331.903 570.123 331.815 570.603 331.639C571.083 331.447 571.491 331.167 571.828 330.799L573.868 332.96C573.34 333.6 572.684 334.112 571.9 334.496C571.131 334.865 570.147 335.049 568.946 335.049ZM568.61 325.06C567.97 325.06 567.426 325.252 566.977 325.636C566.545 326.021 566.257 326.557 566.113 327.245H570.699C570.715 326.493 570.531 325.941 570.147 325.588C569.779 325.236 569.266 325.06 568.61 325.06ZM576.242 334.809V317.761H581.765C585.126 317.761 587.664 318.473 589.376 319.898C591.089 321.323 591.945 323.435 591.945 326.237C591.945 327.933 591.561 329.422 590.793 330.703C590.025 331.983 588.952 332.992 587.576 333.728C586.199 334.448 584.606 334.809 582.797 334.809H576.242ZM580.156 331.327H582.629C584.374 331.327 585.695 330.911 586.591 330.078C587.503 329.23 587.96 327.989 587.96 326.357C587.96 324.628 587.487 323.347 586.543 322.515C585.615 321.667 584.182 321.242 582.245 321.242H580.156V331.327ZM600.249 335.049C598.889 335.049 597.712 334.801 596.72 334.304C595.727 333.792 594.959 333.08 594.415 332.167C593.87 331.239 593.598 330.142 593.598 328.878C593.598 327.597 593.87 326.469 594.415 325.492C594.975 324.516 595.719 323.756 596.648 323.211C597.592 322.667 598.657 322.395 599.841 322.395C601.186 322.395 602.282 322.699 603.131 323.307C603.979 323.916 604.563 324.78 604.883 325.901C605.219 327.005 605.291 328.294 605.099 329.766H597.344C597.44 330.375 597.76 330.887 598.304 331.303C598.849 331.703 599.593 331.903 600.537 331.903C600.97 331.903 601.426 331.815 601.906 331.639C602.386 331.447 602.794 331.167 603.131 330.799L605.171 332.96C604.643 333.6 603.987 334.112 603.203 334.496C602.434 334.865 601.45 335.049 600.249 335.049ZM599.913 325.06C599.273 325.06 598.729 325.252 598.28 325.636C597.848 326.021 597.56 326.557 597.416 327.245H602.002C602.018 326.493 601.834 325.941 601.45 325.588C601.082 325.236 600.569 325.06 599.913 325.06ZM615.877 322.587H619.526L615.036 334.809H609.802L605.96 322.587H609.946L612.635 331.783L615.877 322.587Z" fill="#52B1C2"/>
<path d="M411.172 296.216L405.684 290.728H398.995L405.684 284.04L423.006 301.362H372.926L378.586 307.021H381.673V335.834L387.333 330.174V307.021H423.52V330.174L429.18 335.834V307.021H436.212L405.512 276.322L385.618 296.216H411.172Z" fill="#4AA6B6"/>
<path d="M307.275 83.1588C307.275 87.0999 306.254 91.0411 304.213 94.9822C302.243 98.9233 299.393 102.477 295.663 105.644C292.003 108.811 287.569 111.38 282.361 113.351C277.153 115.321 271.312 116.307 264.837 116.307C261.318 116.307 258.081 116.131 255.125 115.779C252.24 115.427 249.495 114.899 246.891 114.195C244.287 113.491 241.789 112.682 239.396 111.767C237.003 110.782 234.61 109.691 232.217 108.495L237.601 92.4486C239.149 93.5043 241.226 94.6303 243.83 95.8267C246.504 96.9528 249.319 98.0084 252.275 98.9937C255.301 99.979 258.363 100.824 261.459 101.527C264.556 102.161 267.371 102.477 269.904 102.477C275.746 102.477 280.144 101.844 283.1 100.577C284.719 99.8734 286.021 98.2899 287.006 95.8267C288.062 93.3635 288.59 90.1262 288.59 86.1146C288.59 83.2995 287.816 80.9771 286.267 79.1473C284.789 77.2471 282.819 75.5932 280.355 74.1856C277.892 72.7781 275.077 71.5113 271.91 70.3853C268.743 69.2592 265.506 68.0628 262.198 66.796C258.961 65.5292 255.759 64.0865 252.592 62.4678C249.425 60.7787 246.609 58.7378 244.146 56.3449C241.683 53.8817 239.677 50.9611 238.129 47.5829C236.651 44.1344 235.912 39.9822 235.912 35.1261C235.912 31.9591 236.757 28.6162 238.446 25.0973C240.205 21.5785 242.739 18.3763 246.046 15.4908C249.354 12.6053 253.401 10.2125 258.187 8.31229C263.043 6.4121 268.567 5.462 274.76 5.462C279.757 5.462 284.508 5.70832 289.012 6.20097C293.586 6.69361 298.02 7.32701 302.313 8.10116L298.935 24.1472C296.894 23.4435 294.607 22.7749 292.073 22.1415C289.61 21.5081 287.077 20.9802 284.473 20.558C281.869 20.0653 279.335 19.6783 276.872 19.3968C274.409 19.1152 272.227 18.9745 270.327 18.9745C268.286 18.9745 266.139 19.1152 263.887 19.3968C261.705 19.6079 259.911 20.1005 258.503 20.8747C257.096 21.6488 256.075 22.986 255.442 24.8862C254.808 26.7864 254.492 29.0737 254.492 31.748C254.492 34.4927 255.231 36.78 256.709 38.6098C258.257 40.4396 260.263 42.0231 262.726 43.3603C265.189 44.6975 268.004 45.9291 271.171 47.0551C274.338 48.1812 277.576 49.4128 280.883 50.7499C284.191 52.0167 287.428 53.4947 290.595 55.1837C293.762 56.8024 296.578 58.8785 299.041 61.4121C301.504 63.8753 303.475 66.8664 304.952 70.3853C306.501 73.9041 307.275 78.162 307.275 83.1588ZM384.347 114.829L371.679 78.4083L331.036 78.9361L317.84 114.829H303.905L346.765 7.67889L368.09 3.98407L407.994 114.829H384.347ZM368.195 68.1684L351.938 21.5081L334.836 68.1684H368.195ZM480.209 114.829L467.541 78.4083L426.898 78.9361L413.703 114.829H399.768L442.628 7.67889L463.952 3.98407L503.856 114.829H480.209ZM464.058 68.1684L447.8 21.5081L430.699 68.1684H464.058ZM521.811 114.829V18.2355L488.557 17.7077L489.613 6.7288H577.128L576.072 17.391L543.874 18.2355V114.829H521.811ZM653.777 114.829V66.1626H604.9V114.829H582.837V6.7288H604.9V54.0225H653.777V6.7288H675.841V114.829H653.777Z" fill="#FFFF88"/>
<path d="M289.467 170.975L271.305 170.02L272.181 165.798H300.22V199.094C298.521 199.89 296.423 200.687 293.927 201.483C291.431 202.28 288.723 203.023 285.802 203.713C282.882 204.351 279.855 204.882 276.722 205.307C273.589 205.731 270.562 205.944 267.641 205.944C261.747 205.944 256.755 204.935 252.666 202.917C248.577 200.846 245.232 197.952 242.63 194.235C240.081 190.464 238.222 185.977 237.054 180.773C235.886 175.569 235.301 169.781 235.301 163.408C235.301 157.036 236.098 151.327 237.691 146.283C239.337 141.185 241.78 136.857 245.019 133.299C248.312 129.741 252.427 127.033 257.366 125.174C262.304 123.262 268.093 122.307 274.73 122.307C276.377 122.307 278.209 122.386 280.227 122.546C282.298 122.652 284.316 122.811 286.28 123.023C288.298 123.236 290.183 123.475 291.936 123.74C293.741 124.006 295.228 124.245 296.396 124.457L293.529 133.936C292.148 133.511 290.396 133.086 288.272 132.662C286.201 132.184 283.997 131.785 281.66 131.467C279.377 131.095 277.067 130.803 274.73 130.591C272.447 130.325 270.403 130.192 268.597 130.192C265.623 130.192 262.809 130.431 260.154 130.909C257.552 131.387 255.135 132.529 252.905 134.334C251.684 135.29 250.701 136.804 249.958 138.875C249.214 140.946 248.63 143.309 248.205 145.964C247.781 148.619 247.489 151.46 247.329 154.487C247.17 157.514 247.09 160.488 247.09 163.408C247.09 168.772 247.462 173.684 248.205 178.144C248.949 182.552 250.144 186.349 251.79 189.535C253.436 192.721 255.56 195.19 258.162 196.943C260.817 198.695 264.057 199.571 267.88 199.571C269.686 199.571 271.597 199.518 273.615 199.412C275.633 199.253 277.598 199.067 279.51 198.855C281.475 198.642 283.307 198.403 285.006 198.138C286.758 197.872 288.245 197.607 289.467 197.341V170.975ZM354.471 199.173C355.905 199.173 357.79 198.855 360.126 198.217V201.642C358.427 202.545 356.569 203.421 354.551 204.271C352.533 205.121 350.409 205.546 348.178 205.546C346.904 205.546 345.815 205.333 344.912 204.908C344.01 204.537 343.266 204.032 342.682 203.395C342.098 202.705 341.62 201.961 341.248 201.165C340.877 200.368 340.558 199.571 340.292 198.775C338.912 199.678 337.584 200.554 336.31 201.404C335.035 202.253 333.681 203.023 332.247 203.713C330.867 204.351 329.38 204.855 327.787 205.227C326.194 205.652 324.415 205.864 322.45 205.864C317.989 205.864 314.458 204.643 311.856 202.2C309.307 199.704 308.032 195.96 308.032 190.969C308.032 188.314 308.404 186.004 309.148 184.039C309.944 182.021 311.192 180.348 312.891 179.021C314.591 177.64 316.794 176.604 319.503 175.914C322.211 175.224 325.53 174.825 329.459 174.719L339.257 174.401V164.762C339.257 161.736 338.646 159.532 337.425 158.151C336.204 156.717 334.159 156 331.292 156C329.221 156 326.698 156.399 323.724 157.195C320.751 157.939 317.83 158.921 314.962 160.142L313.051 155.045C314.75 154.354 316.529 153.664 318.387 152.974C320.299 152.23 322.237 151.593 324.202 151.062C326.167 150.478 328.158 150.026 330.176 149.708C332.194 149.336 334.186 149.15 336.15 149.15C338.328 149.15 340.266 149.389 341.965 149.867C343.718 150.345 345.178 151.168 346.346 152.336C347.568 153.451 348.47 154.965 349.054 156.877C349.692 158.735 350.01 161.045 350.01 163.807V189.854C350.01 196.067 351.497 199.173 354.471 199.173ZM339.576 195.111C339.576 194.845 339.522 193.332 339.416 190.57C339.31 187.756 339.257 183.8 339.257 178.702C333.469 178.702 329.088 179.074 326.114 179.817C323.14 180.561 321.308 181.304 320.618 182.047C319.981 182.738 319.503 183.72 319.184 184.995C318.919 186.269 318.786 187.756 318.786 189.455C318.786 192.482 319.29 194.819 320.299 196.465C321.361 198.058 323.114 198.855 325.556 198.855C328.158 198.855 330.548 198.563 332.725 197.978C334.903 197.394 337.186 196.438 339.576 195.111ZM399.084 204.829V166.913C399.084 165.639 398.978 164.391 398.765 163.169C398.606 161.895 398.208 160.78 397.57 159.824C396.986 158.815 396.137 157.992 395.022 157.355C393.906 156.717 392.419 156.399 390.561 156.399C389.34 156.399 388.038 156.558 386.658 156.877C385.277 157.195 383.896 157.594 382.516 158.071C381.135 158.549 379.781 159.107 378.453 159.744C377.126 160.381 375.931 161.019 374.869 161.656V204.829H364.116V150.345H373.117L374.71 156.717C375.825 156.027 377.126 155.257 378.613 154.407C380.153 153.505 381.799 152.681 383.551 151.938C385.304 151.141 387.136 150.478 389.047 149.947C391.012 149.416 392.951 149.15 394.862 149.15C397.995 149.15 400.73 149.84 403.067 151.221C405.456 152.602 407.235 154.699 408.404 157.514L409.678 156.717C410.793 156.027 412.094 155.257 413.581 154.407C415.121 153.505 416.767 152.681 418.52 151.938C420.272 151.141 422.104 150.478 424.016 149.947C425.981 149.416 427.919 149.15 429.831 149.15C432.008 149.15 433.999 149.495 435.805 150.186C437.663 150.823 439.256 151.832 440.584 153.213C441.912 154.54 442.947 156.213 443.69 158.231C444.434 160.196 444.806 162.532 444.806 165.24V204.829H434.052V166.913C434.052 165.639 433.946 164.391 433.734 163.169C433.574 161.895 433.176 160.78 432.539 159.824C431.955 158.815 431.105 157.992 429.99 157.355C428.875 156.717 427.388 156.399 425.529 156.399C424.308 156.399 422.98 156.585 421.547 156.956C420.166 157.275 418.759 157.7 417.325 158.231C415.944 158.709 414.563 159.266 413.183 159.903C411.855 160.541 410.66 161.178 409.598 161.815C409.758 162.93 409.837 164.072 409.837 165.24V204.829H399.084ZM478.586 149.15C480.975 149.15 483.312 149.495 485.595 150.186C487.879 150.876 489.95 152.044 491.808 153.69C493.72 155.284 495.366 157.434 496.747 160.142C498.181 162.798 499.243 166.117 499.933 170.099V170.737C499.455 171.321 498.791 171.852 497.942 172.33C497.145 172.808 496.083 173.232 494.755 173.604C493.428 173.976 491.782 174.321 489.817 174.64C487.905 174.905 485.595 175.118 482.887 175.277L465.204 176.472V179.897C465.204 186.322 466.345 190.995 468.629 193.916C470.912 196.837 474.364 198.297 478.984 198.297C480.896 198.297 482.86 198.111 484.878 197.739C486.949 197.368 488.914 196.916 490.773 196.385C492.631 195.854 494.304 195.323 495.791 194.792C497.331 194.208 498.526 193.704 499.375 193.279L500.73 196.385C499.19 197.394 497.464 198.456 495.552 199.571C493.64 200.687 491.569 201.722 489.339 202.678C487.162 203.581 484.852 204.324 482.409 204.908C480.019 205.546 477.55 205.864 475.001 205.864C471.974 205.864 469.16 205.386 466.558 204.43C464.009 203.475 461.778 201.935 459.867 199.81C457.955 197.686 456.442 194.925 455.326 191.526C454.264 188.075 453.733 183.906 453.733 179.021C453.733 173.551 454.371 168.904 455.645 165.081C456.92 161.258 458.672 158.178 460.902 155.841C463.133 153.505 465.761 151.805 468.788 150.743C471.815 149.681 475.081 149.15 478.586 149.15ZM469.585 157.036C469 157.461 468.443 158.151 467.912 159.107C467.434 160.01 467.009 161.125 466.637 162.452C466.266 163.727 465.947 165.134 465.682 166.674C465.469 168.214 465.363 169.781 465.363 171.374L488.144 170.418C487.879 168.612 487.48 166.807 486.949 165.001C486.471 163.143 485.781 161.497 484.878 160.063C484.029 158.629 482.94 157.461 481.612 156.558C480.285 155.655 478.665 155.204 476.753 155.204C475.479 155.204 474.205 155.337 472.93 155.602C471.709 155.868 470.594 156.346 469.585 157.036ZM520.331 198.855C521.977 199.12 523.809 199.359 525.827 199.571C527.898 199.731 530.235 199.81 532.837 199.81C537.988 199.864 542.608 199.465 546.697 198.616C550.785 197.713 554.131 196.332 556.733 194.474C558.007 193.571 559.255 192.349 560.477 190.809C561.751 189.216 562.866 187.145 563.822 184.596C564.778 182.047 565.548 178.941 566.132 175.277C566.769 171.613 567.088 167.232 567.088 162.134C567.088 155.815 566.159 150.504 564.3 146.203C562.442 141.848 559.972 138.344 556.892 135.689C553.812 133.033 550.254 131.148 546.219 130.033C542.183 128.865 538.014 128.281 533.713 128.281C531.854 128.281 530.288 128.307 529.013 128.36C527.792 128.413 526.703 128.493 525.747 128.599C524.792 128.652 523.889 128.732 523.039 128.838C522.243 128.944 521.34 129.051 520.331 129.157V198.855ZM509.259 123.9C511.011 123.687 513.029 123.501 515.313 123.342C517.596 123.13 519.959 122.97 522.402 122.864C524.898 122.705 527.42 122.599 529.969 122.546C532.518 122.439 534.987 122.386 537.377 122.386C543.59 122.386 549.219 123.183 554.264 124.776C559.362 126.316 563.716 128.679 567.327 131.865C570.938 135.051 573.726 139.061 575.691 143.893C577.656 148.725 578.638 154.381 578.638 160.859C578.638 167.391 577.735 173.418 575.93 178.941C574.124 184.411 571.416 189.11 567.805 193.04C564.194 196.969 559.707 200.049 554.343 202.28C548.98 204.457 542.74 205.546 535.625 205.546C530.898 205.546 526.199 205.413 521.526 205.147C516.853 204.882 512.764 204.563 509.259 204.191V123.9ZM610.825 149.15C613.214 149.15 615.551 149.495 617.834 150.186C620.118 150.876 622.189 152.044 624.048 153.69C625.959 155.284 627.605 157.434 628.986 160.142C630.42 162.798 631.482 166.117 632.172 170.099V170.737C631.694 171.321 631.031 171.852 630.181 172.33C629.384 172.808 628.322 173.232 626.995 173.604C625.667 173.976 624.021 174.321 622.056 174.64C620.144 174.905 617.834 175.118 615.126 175.277L597.443 176.472V179.897C597.443 186.322 598.585 190.995 600.868 193.916C603.151 196.837 606.603 198.297 611.223 198.297C613.135 198.297 615.1 198.111 617.118 197.739C619.189 197.368 621.153 196.916 623.012 196.385C624.871 195.854 626.543 195.323 628.03 194.792C629.57 194.208 630.765 193.704 631.615 193.279L632.969 196.385C631.429 197.394 629.703 198.456 627.791 199.571C625.88 200.687 623.809 201.722 621.578 202.678C619.401 203.581 617.091 204.324 614.648 204.908C612.259 205.546 609.789 205.864 607.24 205.864C604.214 205.864 601.399 205.386 598.797 204.43C596.248 203.475 594.018 201.935 592.106 199.81C590.194 197.686 588.681 194.925 587.566 191.526C586.504 188.075 585.973 183.906 585.973 179.021C585.973 173.551 586.61 168.904 587.884 165.081C589.159 161.258 590.911 158.178 593.142 155.841C595.372 153.505 598 151.805 601.027 150.743C604.054 149.681 607.32 149.15 610.825 149.15ZM601.824 157.036C601.24 157.461 600.682 158.151 600.151 159.107C599.673 160.01 599.248 161.125 598.877 162.452C598.505 163.727 598.186 165.134 597.921 166.674C597.708 168.214 597.602 169.781 597.602 171.374L620.383 170.418C620.118 168.612 619.72 166.807 619.189 165.001C618.711 163.143 618.02 161.497 617.118 160.063C616.268 158.629 615.179 157.461 613.852 156.558C612.524 155.655 610.905 155.204 608.993 155.204C607.718 155.204 606.444 155.337 605.169 155.602C603.948 155.868 602.833 156.346 601.824 157.036ZM630.825 150.982C631.249 150.876 631.78 150.743 632.418 150.584C633.108 150.425 633.798 150.292 634.489 150.186C635.232 150.026 635.975 149.92 636.719 149.867C637.462 149.761 638.153 149.708 638.79 149.708C640.33 149.708 641.711 149.894 642.932 150.265C644.153 150.584 645.189 151.248 646.039 152.257C647.154 153.584 648.428 155.841 649.862 159.027C651.296 162.16 652.783 165.798 654.323 169.94C655.863 174.029 657.403 178.383 658.943 183.003C660.483 187.623 661.89 192.057 663.164 196.306H663.403C665.952 192.27 668.076 188.499 669.776 184.995C671.475 181.49 672.829 178.144 673.838 174.958C674.847 171.719 675.537 168.639 675.909 165.718C676.334 162.745 676.546 159.797 676.546 156.877C676.546 155.974 676.467 154.991 676.307 153.929C676.148 152.814 675.962 151.938 675.75 151.301L684.99 149.309C685.255 150.053 685.468 151.009 685.627 152.177C685.786 153.345 685.866 154.46 685.866 155.522C685.866 159.611 685.202 163.807 683.874 168.108C682.6 172.409 680.927 176.684 678.856 180.932C676.838 185.181 674.581 189.323 672.086 193.358C669.643 197.394 667.227 201.218 664.837 204.829H655.278C653.685 199.412 651.986 194.075 650.181 188.818C648.375 183.561 646.623 178.755 644.923 174.401C643.224 170.046 641.631 166.302 640.144 163.169C638.657 159.983 637.436 157.779 636.48 156.558C635.896 155.815 635.259 155.257 634.568 154.885C633.878 154.46 632.869 154.248 631.541 154.248H630.825V150.982Z" fill="#EEEEEE"/>
<path d="M132.58 43.8695L140.527 63.3389C152.938 55.2604 168.467 58.3988 175.391 72.6954C182.592 87.5511 176.914 108.144 162.584 117.407L163.633 119.986C163.633 119.986 230.89 101.821 203.902 56.7745C203.902 56.7745 184.706 13.7113 135.805 41.9325C134.743 42.5453 133.67 43.1895 132.58 43.8695Z" fill="#FFFF88"/>
<ellipse cx="15.5975" cy="15.5943" rx="15.5975" ry="15.5943" transform="matrix(0.866116 -0.499844 0.500156 0.865935 117.1 15.5927)" fill="#FFFF88"/>
<path d="M61.5425 95.0325L81.02 87.0895C72.9381 74.6832 76.0779 59.1606 90.3805 52.2398C105.242 45.0414 125.843 50.7171 135.111 65.0415L137.691 63.9933C137.691 63.9933 119.518 -3.23566 74.4529 23.7412C74.4529 23.7412 31.3718 42.929 59.6048 91.8095C60.2177 92.8708 60.8622 93.9431 61.5425 95.0325Z" fill="#EEEEEE"/>
<ellipse cx="15.5943" cy="15.5975" rx="15.5943" ry="15.5975" transform="matrix(-0.500156 -0.865935 0.866116 -0.499844 31.3069 105.632)" fill="#EEEEEE"/>
<path d="M90.3033 170.269L82.357 150.8C69.9455 158.878 54.4164 155.74 47.4928 141.443C40.2913 126.587 45.9694 105.995 60.2998 96.7313L59.2511 94.1527C59.2511 94.1527 -8.00587 112.318 18.9822 157.364C18.9822 157.364 38.178 200.427 87.079 172.206C88.1407 171.593 89.2135 170.949 90.3033 170.269Z" fill="#FFFF88"/>
<ellipse cx="15.5975" cy="15.5943" rx="15.5975" ry="15.5943" transform="matrix(-0.866116 0.499844 -0.500157 -0.865935 104.81 198.545)" fill="#FFFF88"/>
<path d="M161.339 119.105L141.861 127.048C149.943 139.454 146.803 154.977 132.501 161.897C117.639 169.096 97.0378 163.42 87.7703 149.096L85.1907 150.144C85.1907 150.144 103.363 217.373 148.428 190.396C148.428 190.396 191.51 171.208 163.277 122.328C162.664 121.266 162.019 120.194 161.339 119.105Z" fill="#EEEEEE"/>
<ellipse cx="15.5943" cy="15.5975" rx="15.5943" ry="15.5975" transform="matrix(0.500157 0.865935 -0.866116 0.499844 192.552 109.474)" fill="#EEEEEE"/>
<path fill-rule="evenodd" clip-rule="evenodd" d="M104.69 72.453C112.146 65.3007 123.767 65.1667 131.377 71.8828C134.985 74.5917 155.412 89.966 158.139 92.8062C161.188 95.9824 161.333 100.788 158.462 103.542C157.284 104.672 155.778 105.253 154.205 105.358L125.7 106.523L111.162 120.469L108.825 148.89C108.656 150.457 108.013 151.937 106.835 153.067C103.964 155.82 99.1667 155.479 96.1172 152.302C93.526 149.603 80.2783 130.475 76.7712 125.392C69.8247 117.515 70.2668 105.492 77.9156 98.1513L77.9124 98.1479L104.356 72.7813C104.466 72.6709 104.577 72.5614 104.69 72.453ZM91.4368 106.385L87.5874 102.375C87.092 101.859 86.2727 101.842 85.7566 102.337L82.8747 105.102C82.3587 105.597 82.3419 106.416 82.8373 106.932L86.6867 110.941L91.3433 111.039L91.4368 106.385ZM93.1301 117.656L96.9794 121.666C97.4748 122.182 98.2941 122.199 98.8102 121.704L101.692 118.939C102.208 118.444 102.225 117.625 101.73 117.109L97.8802 113.1L93.2235 113.001L93.1301 117.656ZM97.3721 102.574L93.3619 106.421L93.2665 111.077L97.925 111.174L101.935 107.327C102.451 106.832 102.466 106.011 101.973 105.497L99.2046 102.614C98.7093 102.098 97.8882 102.079 97.3721 102.574ZM86.6455 112.864L82.6334 116.712C82.1174 117.207 82.1024 118.028 82.596 118.542L85.3623 121.424C85.8577 121.94 86.677 121.957 87.193 121.462L91.2033 117.615L91.2986 112.958L86.6455 112.864ZM115.706 79.7892C117.054 81.1924 116.932 83.4945 115.434 84.9309C113.937 86.3674 111.631 86.3943 110.284 84.991C108.936 83.5878 109.058 81.2857 110.556 79.8493C112.053 78.4128 114.359 78.3859 115.706 79.7892ZM126.113 90.6367C127.46 92.0399 127.338 94.342 125.841 95.7784C124.343 97.2149 122.037 97.2418 120.69 95.8385C119.343 94.4353 119.465 92.1332 120.962 90.6968C122.46 89.2603 124.766 89.2334 126.113 90.6367ZM115.539 95.8935C117.036 94.457 117.012 92.0033 115.486 90.413C113.959 88.8226 111.507 88.6979 110.01 90.1343C108.512 91.5708 108.536 94.0245 110.063 95.6148C111.59 97.2052 114.041 97.3299 115.539 95.8935ZM126.334 80.0107C127.861 81.6011 127.885 84.0548 126.388 85.4912C124.89 86.9277 122.439 86.8029 120.912 85.2126C119.385 83.6222 119.361 81.1685 120.858 79.7321C122.356 78.2956 124.808 78.4204 126.334 80.0107Z" fill="#EEEEEE"/>
<path d="M440.167 249.641C440.167 250.52 440.012 251.277 439.702 251.914C439.409 252.534 439.013 253.085 438.514 253.568C438.238 253.826 437.937 254.076 437.61 254.317C437.282 254.558 436.912 254.773 436.499 254.963C436.085 255.135 435.62 255.273 435.104 255.376C434.587 255.479 434.01 255.531 433.373 255.531C432.202 255.531 431.134 255.402 430.17 255.143C429.206 254.885 428.302 254.472 427.458 253.903L428.491 251.501C428.87 251.742 429.275 251.983 429.705 252.224C430.136 252.448 430.583 252.664 431.048 252.87C431.531 253.06 432.021 253.215 432.521 253.335C433.02 253.456 433.537 253.516 434.071 253.516C434.656 253.516 435.156 253.473 435.569 253.387C435.982 253.301 436.335 253.154 436.628 252.948C436.903 252.758 437.127 252.491 437.3 252.147C437.472 251.785 437.558 251.269 437.558 250.597C437.558 249.994 437.325 249.503 436.86 249.125C436.395 248.746 435.81 248.419 435.104 248.143C434.415 247.867 433.657 247.592 432.831 247.316C432.021 247.041 431.264 246.696 430.558 246.283C429.869 245.87 429.292 245.353 428.827 244.733C428.362 244.096 428.129 243.278 428.129 242.279C428.129 241.539 428.284 240.91 428.594 240.394C428.904 239.86 429.292 239.369 429.757 238.921C430.342 238.37 431.022 237.94 431.797 237.63C432.572 237.302 433.425 237.139 434.355 237.139C435.095 237.139 435.87 237.19 436.68 237.294C437.506 237.38 438.29 237.483 439.03 237.604L438.514 240.161C438.169 240.075 437.79 239.989 437.377 239.903C436.964 239.817 436.533 239.739 436.085 239.67C435.655 239.601 435.233 239.55 434.82 239.515C434.424 239.464 434.071 239.438 433.761 239.438C433.072 239.438 432.538 239.481 432.159 239.567C431.78 239.636 431.487 239.748 431.281 239.903C431.091 240.041 430.945 240.239 430.842 240.497C430.756 240.738 430.713 241.065 430.713 241.478C430.713 242.03 430.945 242.477 431.41 242.822C431.875 243.166 432.46 243.476 433.166 243.752C433.873 244.027 434.63 244.311 435.44 244.604C436.249 244.88 437.007 245.233 437.713 245.663C438.419 246.076 439.004 246.602 439.469 247.239C439.934 247.859 440.167 248.66 440.167 249.641ZM446.084 237.526V249.822C446.084 250.235 446.119 250.649 446.188 251.062C446.257 251.458 446.394 251.82 446.601 252.147C446.825 252.457 447.135 252.715 447.531 252.922C447.927 253.128 448.461 253.232 449.132 253.232C449.563 253.232 450.019 253.18 450.502 253.077C451.001 252.973 451.5 252.844 452 252.689C452.499 252.534 452.981 252.354 453.446 252.147C453.911 251.94 454.333 251.734 454.712 251.527V237.526H458.199V255.195H455.28L454.764 253.128C454.368 253.352 453.903 253.611 453.369 253.903C452.852 254.179 452.284 254.446 451.664 254.704C451.061 254.945 450.433 255.152 449.778 255.324C449.124 255.496 448.461 255.582 447.789 255.582C447.031 255.582 446.334 255.471 445.697 255.247C445.06 255.04 444.509 254.721 444.044 254.291C443.596 253.843 443.243 253.301 442.985 252.664C442.726 252.009 442.597 251.243 442.597 250.365V237.526H446.084ZM465.847 239.024C466.209 238.766 466.579 238.525 466.958 238.301C467.337 238.077 467.733 237.879 468.147 237.707C468.56 237.535 468.999 237.397 469.464 237.294C469.929 237.19 470.437 237.139 470.988 237.139C471.952 237.139 472.882 237.294 473.778 237.604C474.673 237.914 475.465 238.413 476.154 239.102C476.843 239.791 477.394 240.695 477.807 241.814C478.221 242.916 478.427 244.26 478.427 245.844C478.427 247.377 478.221 248.746 477.807 249.951C477.411 251.139 476.826 252.147 476.051 252.973C475.293 253.8 474.363 254.437 473.261 254.885C472.176 255.316 470.945 255.531 469.567 255.531C468.913 255.531 468.267 255.462 467.63 255.324C466.993 255.204 466.399 255.066 465.847 254.911C465.847 254.997 465.847 255.135 465.847 255.324C465.865 255.514 465.873 255.72 465.873 255.944C465.873 256.185 465.873 256.426 465.873 256.667C465.891 256.926 465.899 257.158 465.899 257.365V266.483L462.412 267.31V238.043L465.486 237.268L465.847 239.024ZM474.734 246.051C474.734 244.88 474.613 243.881 474.372 243.054C474.148 242.228 473.821 241.547 473.39 241.014C472.96 240.48 472.443 240.092 471.84 239.851C471.238 239.61 470.575 239.489 469.851 239.489C469.128 239.489 468.439 239.567 467.785 239.722C467.148 239.86 466.519 240.058 465.899 240.316V253.335C466.45 253.421 466.975 253.49 467.475 253.542C467.992 253.576 468.543 253.593 469.128 253.593C469.955 253.593 470.712 253.525 471.401 253.387C472.107 253.249 472.65 253.025 473.029 252.715C473.218 252.543 473.408 252.276 473.597 251.914C473.804 251.553 473.993 251.096 474.165 250.545C474.337 249.977 474.475 249.323 474.579 248.582C474.682 247.824 474.734 246.981 474.734 246.051ZM484.965 239.024C485.327 238.766 485.697 238.525 486.076 238.301C486.455 238.077 486.851 237.879 487.264 237.707C487.677 237.535 488.116 237.397 488.581 237.294C489.046 237.19 489.554 237.139 490.105 237.139C491.07 237.139 492 237.294 492.895 237.604C493.791 237.914 494.583 238.413 495.272 239.102C495.961 239.791 496.512 240.695 496.925 241.814C497.338 242.916 497.545 244.26 497.545 245.844C497.545 247.377 497.338 248.746 496.925 249.951C496.529 251.139 495.943 252.147 495.168 252.973C494.411 253.8 493.481 254.437 492.379 254.885C491.294 255.316 490.062 255.531 488.685 255.531C488.03 255.531 487.384 255.462 486.747 255.324C486.11 255.204 485.516 255.066 484.965 254.911C484.965 254.997 484.965 255.135 484.965 255.324C484.982 255.514 484.991 255.72 484.991 255.944C484.991 256.185 484.991 256.426 484.991 256.667C485.008 256.926 485.017 257.158 485.017 257.365V266.483L481.529 267.31V238.043L484.603 237.268L484.965 239.024ZM493.851 246.051C493.851 244.88 493.73 243.881 493.489 243.054C493.265 242.228 492.938 241.547 492.508 241.014C492.077 240.48 491.561 240.092 490.958 239.851C490.355 239.61 489.692 239.489 488.969 239.489C488.245 239.489 487.557 239.567 486.902 239.722C486.265 239.86 485.637 240.058 485.017 240.316V253.335C485.568 253.421 486.093 253.49 486.592 253.542C487.109 253.576 487.66 253.593 488.245 253.593C489.072 253.593 489.83 253.525 490.519 253.387C491.225 253.249 491.767 253.025 492.146 252.715C492.335 252.543 492.525 252.276 492.714 251.914C492.921 251.553 493.11 251.096 493.283 250.545C493.455 249.977 493.593 249.323 493.696 248.582C493.799 247.824 493.851 246.981 493.851 246.051ZM508.112 255.531C505.339 255.531 503.213 254.756 501.732 253.206C500.268 251.639 499.536 249.357 499.536 246.361C499.536 244.949 499.717 243.674 500.078 242.538C500.44 241.384 500.982 240.411 501.706 239.619C502.429 238.826 503.325 238.215 504.392 237.785C505.46 237.354 506.7 237.139 508.112 237.139C509.507 237.139 510.738 237.345 511.806 237.759C512.874 238.155 513.769 238.749 514.492 239.541C515.216 240.316 515.758 241.272 516.12 242.408C516.481 243.545 516.662 244.845 516.662 246.309C516.662 247.738 516.481 249.021 516.12 250.158C515.758 251.294 515.216 252.267 514.492 253.077C513.769 253.869 512.874 254.48 511.806 254.911C510.738 255.324 509.507 255.531 508.112 255.531ZM503.23 246.335C503.23 247.626 503.316 248.729 503.488 249.641C503.678 250.554 503.962 251.303 504.341 251.889C504.737 252.474 505.236 252.905 505.839 253.18C506.459 253.456 507.199 253.593 508.06 253.593C508.766 253.593 509.378 253.525 509.894 253.387C510.411 253.249 510.928 252.991 511.444 252.612C512.047 252.164 512.452 251.389 512.658 250.287C512.865 249.168 512.968 247.859 512.968 246.361C512.968 243.846 512.581 242.012 511.806 240.859C511.048 239.687 509.834 239.102 508.164 239.102C507.475 239.102 506.855 239.171 506.304 239.309C505.77 239.446 505.262 239.687 504.78 240.032C504.487 240.239 504.246 240.557 504.056 240.988C503.867 241.401 503.703 241.892 503.566 242.46C503.445 243.011 503.359 243.622 503.307 244.294C503.256 244.966 503.23 245.646 503.23 246.335ZM528.883 240.316C528.487 240.282 528.039 240.247 527.539 240.213C527.04 240.161 526.566 240.135 526.119 240.135C525.791 240.135 525.507 240.17 525.266 240.239C525.042 240.307 524.818 240.419 524.595 240.574C524.388 240.712 524.181 240.884 523.975 241.091C523.768 241.28 523.527 241.504 523.251 241.763V255.195H519.764V237.526H522.683L523.174 240.29H523.2C523.389 240.066 523.587 239.825 523.794 239.567C524 239.291 524.207 239.033 524.414 238.792C524.638 238.551 524.87 238.327 525.111 238.12C525.352 237.914 525.611 237.75 525.886 237.63C526.351 237.423 526.876 237.294 527.462 237.242C528.047 237.173 528.693 237.139 529.399 237.139L528.883 240.316ZM531.029 239.438L529.04 239.257V238.25L533.715 234.426H534.413L534.49 237.526H539.321L539.088 239.102C538.658 239.154 538.175 239.205 537.642 239.257C537.125 239.291 536.634 239.326 536.169 239.36C535.618 239.412 535.067 239.446 534.516 239.464V250.959C534.516 251.596 534.628 252.13 534.852 252.56C535.093 252.973 535.601 253.18 536.376 253.18C536.789 253.18 537.289 253.172 537.874 253.154C538.46 253.137 538.993 253.111 539.476 253.077V254.291C539.217 254.411 538.881 254.541 538.468 254.678C538.072 254.816 537.633 254.954 537.151 255.092C536.669 255.212 536.186 255.316 535.704 255.402C535.222 255.488 534.774 255.531 534.361 255.531C533.982 255.531 533.595 255.479 533.199 255.376C532.802 255.29 532.441 255.118 532.114 254.859C531.804 254.601 531.545 254.239 531.339 253.774C531.132 253.292 531.029 252.672 531.029 251.914V239.438ZM547.847 237.139C548.622 237.139 549.38 237.251 550.12 237.475C550.861 237.698 551.532 238.077 552.135 238.611C552.755 239.128 553.289 239.825 553.737 240.704C554.202 241.565 554.546 242.641 554.77 243.932V244.139C554.615 244.329 554.4 244.501 554.124 244.656C553.866 244.811 553.521 244.949 553.091 245.069C552.66 245.19 552.126 245.302 551.489 245.405C550.869 245.491 550.12 245.56 549.242 245.612L543.507 245.999V247.11C543.507 249.193 543.878 250.709 544.618 251.656C545.359 252.603 546.478 253.077 547.976 253.077C548.596 253.077 549.233 253.017 549.888 252.896C550.559 252.775 551.197 252.629 551.799 252.457C552.402 252.285 552.944 252.112 553.427 251.94C553.926 251.751 554.314 251.587 554.589 251.449L555.028 252.457C554.529 252.784 553.969 253.128 553.349 253.49C552.729 253.852 552.058 254.188 551.334 254.498C550.628 254.79 549.879 255.031 549.087 255.221C548.312 255.427 547.511 255.531 546.685 255.531C545.703 255.531 544.79 255.376 543.947 255.066C543.12 254.756 542.397 254.256 541.777 253.568C541.157 252.879 540.666 251.983 540.304 250.881C539.96 249.762 539.788 248.41 539.788 246.826C539.788 245.052 539.994 243.545 540.408 242.305C540.821 241.065 541.389 240.066 542.112 239.309C542.836 238.551 543.688 238 544.67 237.655C545.651 237.311 546.71 237.139 547.847 237.139ZM544.928 239.696C544.739 239.834 544.558 240.058 544.386 240.368C544.231 240.66 544.093 241.022 543.972 241.453C543.852 241.866 543.748 242.322 543.662 242.822C543.593 243.321 543.559 243.829 543.559 244.346L550.947 244.036C550.861 243.45 550.732 242.865 550.559 242.279C550.404 241.677 550.181 241.143 549.888 240.678C549.612 240.213 549.259 239.834 548.829 239.541C548.398 239.248 547.873 239.102 547.253 239.102C546.84 239.102 546.426 239.145 546.013 239.231C545.617 239.317 545.255 239.472 544.928 239.696ZM569.134 237.475C569.117 237.216 569.108 236.958 569.108 236.7C569.091 236.493 569.083 236.278 569.083 236.054C569.083 235.813 569.083 235.623 569.083 235.486V226.212L572.544 225.334V255.195H570.245L569.289 253.542H569.212C568.85 253.8 568.471 254.05 568.075 254.291C567.679 254.515 567.266 254.721 566.835 254.911C566.422 255.1 565.974 255.247 565.492 255.35C565.01 255.471 564.502 255.531 563.968 255.531C563.004 255.531 562.074 255.376 561.178 255.066C560.283 254.756 559.491 254.256 558.802 253.568C558.113 252.879 557.562 251.983 557.148 250.881C556.735 249.762 556.529 248.41 556.529 246.826C556.529 245.31 556.727 243.95 557.123 242.744C557.536 241.539 558.121 240.523 558.879 239.696C559.654 238.869 560.584 238.241 561.669 237.81C562.771 237.363 564.011 237.139 565.389 237.139C565.94 237.139 566.543 237.173 567.197 237.242C567.851 237.311 568.497 237.388 569.134 237.475ZM560.222 246.619C560.222 247.79 560.334 248.789 560.558 249.615C560.799 250.442 561.135 251.122 561.566 251.656C561.996 252.19 562.513 252.577 563.116 252.819C563.718 253.06 564.381 253.18 565.105 253.18C565.828 253.18 566.534 253.111 567.223 252.973C567.912 252.819 568.523 252.629 569.057 252.405V239.334C568.506 239.248 567.972 239.188 567.455 239.154C566.956 239.102 566.413 239.076 565.828 239.076C565.001 239.076 564.235 239.145 563.529 239.283C562.84 239.421 562.306 239.644 561.927 239.954C561.738 240.127 561.54 240.385 561.333 240.729C561.144 241.074 560.963 241.522 560.791 242.073C560.619 242.606 560.481 243.252 560.377 244.01C560.274 244.768 560.222 245.637 560.222 246.619ZM582.648 226.212L586.136 225.334V236.209C586.136 236.519 586.127 236.837 586.11 237.165C586.11 237.492 586.11 237.793 586.11 238.069C586.093 238.379 586.084 238.697 586.084 239.024C586.446 238.766 586.816 238.525 587.195 238.301C587.574 238.077 587.97 237.879 588.383 237.707C588.796 237.535 589.235 237.397 589.7 237.294C590.165 237.19 590.673 237.139 591.224 237.139C592.189 237.139 593.119 237.294 594.014 237.604C594.91 237.914 595.702 238.413 596.391 239.102C597.08 239.791 597.631 240.695 598.044 241.814C598.457 242.916 598.664 244.26 598.664 245.844C598.664 247.377 598.457 248.746 598.044 249.951C597.648 251.139 597.062 252.147 596.287 252.973C595.53 253.8 594.6 254.437 593.498 254.885C592.413 255.316 591.181 255.531 589.804 255.531C588.719 255.531 587.565 255.453 586.342 255.298C585.137 255.161 583.905 254.911 582.648 254.549V226.212ZM594.97 246.051C594.97 244.88 594.849 243.881 594.608 243.054C594.384 242.228 594.057 241.547 593.627 241.014C593.196 240.48 592.68 240.092 592.077 239.851C591.474 239.61 590.811 239.489 590.088 239.489C589.365 239.489 588.676 239.567 588.021 239.722C587.384 239.86 586.756 240.049 586.136 240.29V253.335C586.687 253.421 587.212 253.49 587.711 253.542C588.228 253.576 588.779 253.593 589.365 253.593C590.191 253.593 590.949 253.525 591.638 253.387C592.344 253.249 592.886 253.025 593.265 252.715C593.455 252.543 593.644 252.276 593.833 251.914C594.04 251.553 594.229 251.096 594.402 250.545C594.574 249.977 594.712 249.323 594.815 248.582C594.918 247.824 594.97 246.981 594.97 246.051ZM612.718 240.316C612.718 240.075 612.701 239.825 612.667 239.567C612.649 239.291 612.615 239.042 612.563 238.818C612.529 238.577 612.486 238.37 612.434 238.198C612.382 238.008 612.339 237.862 612.305 237.759L615.301 237.061C615.439 237.354 615.534 237.733 615.586 238.198C615.654 238.646 615.689 239.111 615.689 239.593C615.689 240.626 615.525 241.797 615.198 243.106C614.888 244.397 614.466 245.732 613.932 247.11C613.398 248.487 612.779 249.874 612.072 251.269C611.366 252.664 610.635 253.972 609.877 255.195C609.343 256.039 608.783 256.917 608.198 257.83C607.612 258.76 607.001 259.672 606.364 260.568C605.727 261.463 605.064 262.316 604.375 263.125C603.686 263.935 602.971 264.649 602.231 265.269C601.507 265.889 600.758 266.38 599.983 266.742C599.208 267.103 598.416 267.284 597.607 267.284C597.107 267.284 596.677 267.232 596.315 267.129C595.954 267.026 595.635 266.879 595.359 266.69V265.579C595.514 265.614 595.695 265.64 595.902 265.657C596.091 265.691 596.264 265.708 596.419 265.708C596.935 265.708 597.512 265.545 598.149 265.218C598.786 264.908 599.449 264.486 600.138 263.952C600.844 263.435 601.55 262.833 602.257 262.144C602.963 261.472 603.634 260.766 604.271 260.026C604.926 259.285 605.528 258.544 606.08 257.804C606.631 257.081 607.096 256.4 607.474 255.763C606.803 253.835 606.14 252.026 605.485 250.339C604.831 248.651 604.22 247.127 603.651 245.767C603.083 244.406 602.558 243.235 602.076 242.253C601.593 241.255 601.189 240.488 600.862 239.954C600.603 239.541 600.293 239.248 599.932 239.076C599.57 238.887 599.217 238.792 598.873 238.792H598.588V237.733C598.881 237.647 599.286 237.561 599.803 237.475C600.319 237.371 600.827 237.32 601.327 237.32C601.774 237.32 602.205 237.38 602.618 237.5C603.049 237.604 603.393 237.819 603.651 238.146C604.03 238.611 604.452 239.334 604.917 240.316C605.382 241.28 605.864 242.408 606.364 243.7C606.88 244.974 607.406 246.361 607.939 247.859C608.473 249.34 608.99 250.829 609.489 252.328H609.567C610.204 251.208 610.729 250.123 611.143 249.073C611.556 248.005 611.874 246.972 612.098 245.973C612.339 244.974 612.503 244.01 612.589 243.08C612.675 242.133 612.718 241.212 612.718 240.316Z" fill="#EEEEEE"/>
<path d="M70.0241 253.527C70.4891 253.527 71.1004 253.424 71.8581 253.217V254.328C71.3071 254.621 70.7043 254.905 70.0499 255.18C69.3955 255.456 68.7067 255.594 67.9834 255.594C67.5701 255.594 67.2171 255.525 66.9243 255.387C66.6316 255.266 66.3905 255.103 66.201 254.896C66.0116 254.672 65.8566 254.431 65.7361 254.173C65.6155 253.915 65.5122 253.656 65.4261 253.398C64.9783 253.691 64.5478 253.975 64.1345 254.25C63.7212 254.526 63.2821 254.776 62.8171 255C62.3694 255.206 61.8872 255.37 61.3705 255.49C60.8539 255.628 60.277 255.697 59.6398 255.697C58.1933 255.697 57.0481 255.301 56.2042 254.509C55.3776 253.699 54.9643 252.485 54.9643 250.866C54.9643 250.005 55.0849 249.256 55.326 248.619C55.5843 247.965 55.989 247.422 56.54 246.992C57.0911 246.544 57.8058 246.208 58.6841 245.984C59.5623 245.76 60.6386 245.631 61.913 245.597L65.0903 245.494V242.368C65.0903 241.386 64.8922 240.672 64.4961 240.224C64.1001 239.759 63.4371 239.526 62.5071 239.526C61.8355 239.526 61.0175 239.656 60.0531 239.914C59.0888 240.155 58.1416 240.474 57.2117 240.87L56.5917 239.216C57.1428 238.993 57.7197 238.769 58.3224 238.545C58.9424 238.304 59.5709 238.097 60.2081 237.925C60.8453 237.735 61.4911 237.589 62.1455 237.486C62.7999 237.365 63.4457 237.305 64.0828 237.305C64.7889 237.305 65.4175 237.382 65.9685 237.537C66.5368 237.692 67.0104 237.959 67.3893 238.338C67.7854 238.7 68.0781 239.191 68.2676 239.811C68.4742 240.413 68.5775 241.162 68.5775 242.058V250.505C68.5775 252.52 69.0597 253.527 70.0241 253.527ZM65.1936 252.21C65.1936 252.124 65.1764 251.633 65.1419 250.737C65.1075 249.825 65.0903 248.542 65.0903 246.888C63.2132 246.888 61.7924 247.009 60.8281 247.25C59.8637 247.491 59.2696 247.732 59.0457 247.973C58.839 248.197 58.6841 248.516 58.5807 248.929C58.4946 249.342 58.4516 249.825 58.4516 250.376C58.4516 251.357 58.6152 252.115 58.9424 252.649C59.2868 253.165 59.8551 253.424 60.6473 253.424C61.4911 253.424 62.266 253.329 62.9721 253.14C63.6782 252.95 64.4187 252.64 65.1936 252.21ZM84.0785 249.807C84.0785 250.686 83.9235 251.443 83.6135 252.081C83.3208 252.7 82.9247 253.252 82.4253 253.734C82.1498 253.992 81.8484 254.242 81.5212 254.483C81.194 254.724 80.8237 254.939 80.4104 255.129C79.9971 255.301 79.5322 255.439 79.0155 255.542C78.4989 255.645 77.922 255.697 77.2848 255.697C76.1138 255.697 75.0461 255.568 74.0817 255.309C73.1173 255.051 72.2132 254.638 71.3694 254.07L72.4027 251.667C72.7815 251.908 73.1862 252.149 73.6167 252.391C74.0473 252.614 74.495 252.83 74.96 253.036C75.4422 253.226 75.933 253.381 76.4324 253.501C76.9318 253.622 77.4484 253.682 77.9823 253.682C78.5678 253.682 79.0672 253.639 79.4805 253.553C79.8938 253.467 80.2468 253.32 80.5396 253.114C80.8151 252.924 81.039 252.657 81.2112 252.313C81.3834 251.951 81.4695 251.435 81.4695 250.763C81.4695 250.16 81.237 249.67 80.7721 249.291C80.3071 248.912 79.7216 248.585 79.0155 248.309C78.3267 248.034 77.569 247.758 76.7424 247.483C75.933 247.207 75.1752 246.863 74.4692 246.449C73.7803 246.036 73.2034 245.519 72.7385 244.899C72.2735 244.262 72.041 243.444 72.041 242.445C72.041 241.705 72.196 241.076 72.506 240.56C72.816 240.026 73.2034 239.535 73.6684 239.087C74.2539 238.536 74.9341 238.106 75.7091 237.796C76.484 237.469 77.3365 237.305 78.2664 237.305C79.0069 237.305 79.7819 237.357 80.5912 237.46C81.4179 237.546 82.2014 237.649 82.9419 237.77L82.4253 240.327C82.0809 240.241 81.702 240.155 81.2887 240.069C80.8754 239.983 80.4449 239.905 79.9971 239.836C79.5666 239.768 79.1447 239.716 78.7314 239.681C78.3353 239.63 77.9823 239.604 77.6723 239.604C76.9834 239.604 76.4496 239.647 76.0707 239.733C75.6919 239.802 75.3991 239.914 75.1925 240.069C75.003 240.207 74.8567 240.405 74.7533 240.663C74.6672 240.904 74.6242 241.231 74.6242 241.645C74.6242 242.196 74.8567 242.643 75.3216 242.988C75.7866 243.332 76.3721 243.642 77.0782 243.918C77.7842 244.193 78.5419 244.477 79.3513 244.77C80.1607 245.046 80.9184 245.399 81.6245 245.829C82.3306 246.243 82.9161 246.768 83.3811 247.405C83.846 248.025 84.0785 248.826 84.0785 249.807ZM97.6163 249.807C97.6163 250.686 97.4613 251.443 97.1513 252.081C96.8586 252.7 96.4625 253.252 95.9631 253.734C95.6875 253.992 95.3862 254.242 95.059 254.483C94.7318 254.724 94.3615 254.939 93.9482 255.129C93.5349 255.301 93.0699 255.439 92.5533 255.542C92.0367 255.645 91.4598 255.697 90.8226 255.697C89.6516 255.697 88.5839 255.568 87.6195 255.309C86.6551 255.051 85.751 254.638 84.9072 254.07L85.9404 251.667C86.3193 251.908 86.724 252.149 87.1545 252.391C87.585 252.614 88.0328 252.83 88.4978 253.036C88.9799 253.226 89.4707 253.381 89.9702 253.501C90.4696 253.622 90.9862 253.682 91.52 253.682C92.1056 253.682 92.605 253.639 93.0183 253.553C93.4316 253.467 93.7846 253.32 94.0774 253.114C94.3529 252.924 94.5768 252.657 94.749 252.313C94.9212 251.951 95.0073 251.435 95.0073 250.763C95.0073 250.16 94.7748 249.67 94.3099 249.291C93.8449 248.912 93.2594 248.585 92.5533 248.309C91.8645 248.034 91.1067 247.758 90.2801 247.483C89.4707 247.207 88.713 246.863 88.007 246.449C87.3181 246.036 86.7412 245.519 86.2762 244.899C85.8113 244.262 85.5788 243.444 85.5788 242.445C85.5788 241.705 85.7338 241.076 86.0438 240.56C86.3537 240.026 86.7412 239.535 87.2062 239.087C87.7917 238.536 88.4719 238.106 89.2469 237.796C90.0218 237.469 90.8743 237.305 91.8042 237.305C92.5447 237.305 93.3196 237.357 94.129 237.46C94.9556 237.546 95.7392 237.649 96.4797 237.77L95.9631 240.327C95.6186 240.241 95.2398 240.155 94.8265 240.069C94.4132 239.983 93.9827 239.905 93.5349 239.836C93.1044 239.768 92.6825 239.716 92.2692 239.681C91.8731 239.63 91.52 239.604 91.2101 239.604C90.5212 239.604 89.9874 239.647 89.6085 239.733C89.2297 239.802 88.9369 239.914 88.7302 240.069C88.5408 240.207 88.3944 240.405 88.2911 240.663C88.205 240.904 88.162 241.231 88.162 241.645C88.162 242.196 88.3944 242.643 88.8594 242.988C89.3244 243.332 89.9099 243.642 90.6159 243.918C91.322 244.193 92.0797 244.477 92.8891 244.77C93.6985 245.046 94.4562 245.399 95.1623 245.829C95.8684 246.243 96.4539 246.768 96.9188 247.405C97.3838 248.025 97.6163 248.826 97.6163 249.807ZM107.693 255.697C104.92 255.697 102.793 254.922 101.312 253.372C99.8485 251.805 99.1166 249.523 99.1166 246.527C99.1166 245.115 99.2974 243.84 99.659 242.704C100.021 241.55 100.563 240.577 101.286 239.785C102.01 238.993 102.905 238.381 103.973 237.951C105.041 237.52 106.281 237.305 107.693 237.305C109.088 237.305 110.319 237.512 111.387 237.925C112.454 238.321 113.35 238.915 114.073 239.707C114.796 240.482 115.339 241.438 115.7 242.575C116.062 243.711 116.243 245.011 116.243 246.475C116.243 247.904 116.062 249.187 115.7 250.324C115.339 251.461 114.796 252.434 114.073 253.243C113.35 254.035 112.454 254.646 111.387 255.077C110.319 255.49 109.088 255.697 107.693 255.697ZM102.81 246.501C102.81 247.793 102.897 248.895 103.069 249.807C103.258 250.72 103.542 251.469 103.921 252.055C104.317 252.64 104.817 253.071 105.419 253.346C106.039 253.622 106.78 253.76 107.641 253.76C108.347 253.76 108.958 253.691 109.475 253.553C109.992 253.415 110.508 253.157 111.025 252.778C111.628 252.33 112.032 251.555 112.239 250.453C112.446 249.334 112.549 248.025 112.549 246.527C112.549 244.012 112.161 242.178 111.387 241.025C110.629 239.854 109.415 239.268 107.744 239.268C107.055 239.268 106.436 239.337 105.884 239.475C105.351 239.613 104.843 239.854 104.36 240.198C104.068 240.405 103.827 240.723 103.637 241.154C103.448 241.567 103.284 242.058 103.146 242.626C103.026 243.177 102.94 243.789 102.888 244.46C102.836 245.132 102.81 245.812 102.81 246.501ZM130.969 240.715C130.642 240.56 130.254 240.396 129.806 240.224C129.359 240.052 128.894 239.905 128.412 239.785C127.947 239.647 127.482 239.535 127.017 239.449C126.569 239.363 126.181 239.32 125.854 239.32C125.441 239.32 125.028 239.389 124.614 239.526C124.218 239.664 123.822 239.905 123.426 240.25C123.237 240.422 123.047 240.654 122.858 240.947C122.686 241.24 122.531 241.645 122.393 242.161C122.255 242.661 122.143 243.289 122.057 244.047C121.988 244.805 121.954 245.726 121.954 246.811C121.954 248.051 122.048 249.084 122.238 249.911C122.427 250.737 122.711 251.4 123.09 251.9C123.486 252.382 123.969 252.726 124.537 252.933C125.122 253.14 125.794 253.243 126.552 253.243C127.413 253.243 128.308 253.14 129.238 252.933C130.168 252.726 131.012 252.451 131.77 252.106L132.235 253.165C131.787 253.493 131.296 253.811 130.762 254.121C130.246 254.431 129.695 254.707 129.109 254.948C128.524 255.172 127.912 255.353 127.275 255.49C126.638 255.628 125.975 255.697 125.286 255.697C124.304 255.697 123.383 255.542 122.522 255.232C121.661 254.922 120.912 254.423 120.275 253.734C119.637 253.045 119.138 252.149 118.776 251.047C118.415 249.928 118.234 248.576 118.234 246.992C118.234 245.476 118.423 244.124 118.802 242.936C119.181 241.731 119.732 240.715 120.455 239.888C121.196 239.044 122.109 238.407 123.194 237.977C124.279 237.529 125.527 237.305 126.939 237.305C127.783 237.305 128.635 237.357 129.497 237.46C130.358 237.546 131.15 237.658 131.873 237.796L130.969 240.715ZM134.122 255.361V237.692H137.61V255.361H134.122ZM135.827 228.626L138.204 230.976L135.827 233.327L133.477 230.976L135.827 228.626ZM155.539 253.527C156.004 253.527 156.615 253.424 157.373 253.217V254.328C156.822 254.621 156.219 254.905 155.565 255.18C154.91 255.456 154.221 255.594 153.498 255.594C153.085 255.594 152.732 255.525 152.439 255.387C152.146 255.266 151.905 255.103 151.716 254.896C151.526 254.672 151.371 254.431 151.251 254.173C151.13 253.915 151.027 253.656 150.941 253.398C150.493 253.691 150.063 253.975 149.649 254.25C149.236 254.526 148.797 254.776 148.332 255C147.884 255.206 147.402 255.37 146.885 255.49C146.369 255.628 145.792 255.697 145.155 255.697C143.708 255.697 142.563 255.301 141.719 254.509C140.892 253.699 140.479 252.485 140.479 250.866C140.479 250.005 140.6 249.256 140.841 248.619C141.099 247.965 141.504 247.422 142.055 246.992C142.606 246.544 143.321 246.208 144.199 245.984C145.077 245.76 146.153 245.631 147.428 245.597L150.605 245.494V242.368C150.605 241.386 150.407 240.672 150.011 240.224C149.615 239.759 148.952 239.526 148.022 239.526C147.35 239.526 146.532 239.656 145.568 239.914C144.603 240.155 143.656 240.474 142.726 240.87L142.106 239.216C142.658 238.993 143.234 238.769 143.837 238.545C144.457 238.304 145.086 238.097 145.723 237.925C146.36 237.735 147.006 237.589 147.66 237.486C148.315 237.365 148.96 237.305 149.598 237.305C150.304 237.305 150.932 237.382 151.483 237.537C152.052 237.692 152.525 237.959 152.904 238.338C153.3 238.7 153.593 239.191 153.782 239.811C153.989 240.413 154.092 241.162 154.092 242.058V250.505C154.092 252.52 154.574 253.527 155.539 253.527ZM150.708 252.21C150.708 252.124 150.691 251.633 150.657 250.737C150.622 249.825 150.605 248.542 150.605 246.888C148.728 246.888 147.307 247.009 146.343 247.25C145.378 247.491 144.784 247.732 144.56 247.973C144.354 248.197 144.199 248.516 144.095 248.929C144.009 249.342 143.966 249.825 143.966 250.376C143.966 251.357 144.13 252.115 144.457 252.649C144.802 253.165 145.37 253.424 146.162 253.424C147.006 253.424 147.781 253.329 148.487 253.14C149.193 252.95 149.933 252.64 150.708 252.21ZM158.666 239.604L156.677 239.423V238.416L161.353 234.593H162.05L162.128 237.692H166.958L166.726 239.268C166.295 239.32 165.813 239.371 165.279 239.423C164.763 239.458 164.272 239.492 163.807 239.526C163.256 239.578 162.705 239.613 162.154 239.63V251.125C162.154 251.762 162.266 252.296 162.49 252.726C162.731 253.14 163.239 253.346 164.014 253.346C164.427 253.346 164.926 253.338 165.512 253.32C166.097 253.303 166.631 253.277 167.113 253.243V254.457C166.855 254.578 166.519 254.707 166.106 254.845C165.71 254.982 165.271 255.12 164.789 255.258C164.306 255.378 163.824 255.482 163.342 255.568C162.86 255.654 162.412 255.697 161.999 255.697C161.62 255.697 161.232 255.645 160.836 255.542C160.44 255.456 160.079 255.284 159.751 255.025C159.441 254.767 159.183 254.405 158.976 253.94C158.77 253.458 158.666 252.838 158.666 252.081V239.604ZM175.485 237.305C176.26 237.305 177.018 237.417 177.758 237.641C178.499 237.865 179.17 238.243 179.773 238.777C180.393 239.294 180.927 239.991 181.374 240.87C181.839 241.731 182.184 242.807 182.408 244.099V244.305C182.253 244.495 182.037 244.667 181.762 244.822C181.504 244.977 181.159 245.115 180.729 245.235C180.298 245.356 179.764 245.468 179.127 245.571C178.507 245.657 177.758 245.726 176.88 245.778L171.145 246.165V247.276C171.145 249.36 171.515 250.875 172.256 251.822C172.996 252.769 174.116 253.243 175.614 253.243C176.234 253.243 176.871 253.183 177.526 253.062C178.197 252.942 178.834 252.795 179.437 252.623C180.04 252.451 180.582 252.279 181.064 252.106C181.564 251.917 181.951 251.753 182.227 251.616L182.666 252.623C182.167 252.95 181.607 253.295 180.987 253.656C180.367 254.018 179.695 254.354 178.972 254.664C178.266 254.956 177.517 255.198 176.725 255.387C175.95 255.594 175.149 255.697 174.322 255.697C173.341 255.697 172.428 255.542 171.584 255.232C170.758 254.922 170.034 254.423 169.414 253.734C168.795 253.045 168.304 252.149 167.942 251.047C167.598 249.928 167.425 248.576 167.425 246.992C167.425 245.218 167.632 243.711 168.045 242.471C168.459 241.231 169.027 240.232 169.75 239.475C170.474 238.717 171.326 238.166 172.308 237.822C173.289 237.477 174.348 237.305 175.485 237.305ZM172.566 239.862C172.376 240 172.196 240.224 172.023 240.534C171.868 240.827 171.731 241.188 171.61 241.619C171.49 242.032 171.386 242.488 171.3 242.988C171.231 243.487 171.197 243.995 171.197 244.512L178.585 244.202C178.499 243.616 178.369 243.031 178.197 242.445C178.042 241.843 177.818 241.309 177.526 240.844C177.25 240.379 176.897 240 176.466 239.707C176.036 239.414 175.511 239.268 174.891 239.268C174.477 239.268 174.064 239.311 173.651 239.397C173.255 239.483 172.893 239.638 172.566 239.862ZM196.772 237.641C196.755 237.382 196.746 237.124 196.746 236.866C196.729 236.659 196.72 236.444 196.72 236.22C196.72 235.979 196.72 235.789 196.72 235.652V226.378L200.182 225.5V255.361H197.883L196.927 253.708H196.85C196.488 253.966 196.109 254.216 195.713 254.457C195.317 254.681 194.904 254.888 194.473 255.077C194.06 255.266 193.612 255.413 193.13 255.516C192.648 255.637 192.14 255.697 191.606 255.697C190.641 255.697 189.711 255.542 188.816 255.232C187.921 254.922 187.128 254.423 186.44 253.734C185.751 253.045 185.2 252.149 184.786 251.047C184.373 249.928 184.166 248.576 184.166 246.992C184.166 245.476 184.364 244.116 184.76 242.91C185.174 241.705 185.759 240.689 186.517 239.862C187.292 239.036 188.222 238.407 189.307 237.977C190.409 237.529 191.649 237.305 193.027 237.305C193.578 237.305 194.18 237.339 194.835 237.408C195.489 237.477 196.135 237.555 196.772 237.641ZM187.86 246.785C187.86 247.956 187.972 248.955 188.196 249.782C188.437 250.608 188.773 251.288 189.203 251.822C189.634 252.356 190.151 252.744 190.753 252.985C191.356 253.226 192.019 253.346 192.742 253.346C193.466 253.346 194.172 253.277 194.861 253.14C195.549 252.985 196.161 252.795 196.695 252.571V239.501C196.144 239.414 195.61 239.354 195.093 239.32C194.594 239.268 194.051 239.242 193.466 239.242C192.639 239.242 191.873 239.311 191.167 239.449C190.478 239.587 189.944 239.811 189.565 240.121C189.376 240.293 189.178 240.551 188.971 240.895C188.782 241.24 188.601 241.688 188.429 242.239C188.256 242.773 188.119 243.418 188.015 244.176C187.912 244.934 187.86 245.803 187.86 246.785ZM232.501 240.121C232.501 239.742 232.467 239.346 232.398 238.932C232.346 238.519 232.286 238.209 232.217 238.002L235.162 237.357C235.248 237.598 235.317 237.908 235.369 238.287C235.42 238.665 235.446 239.027 235.446 239.371C235.446 240.594 235.239 241.886 234.826 243.246C234.43 244.607 233.913 245.976 233.276 247.353C232.656 248.731 231.967 250.1 231.21 251.461C230.469 252.821 229.754 254.121 229.066 255.361H225.708C225.156 253.277 224.562 251.194 223.925 249.11C223.305 247.026 222.651 245.063 221.962 243.22H221.884C221.609 244.219 221.29 245.244 220.929 246.294C220.567 247.328 220.18 248.369 219.766 249.42C219.353 250.453 218.905 251.478 218.423 252.494C217.958 253.493 217.476 254.448 216.976 255.361H213.67C213.24 253.742 212.792 252.081 212.327 250.376C211.862 248.671 211.406 247.086 210.958 245.623C210.527 244.142 210.123 242.876 209.744 241.825C209.382 240.758 209.081 240.052 208.84 239.707C208.633 239.432 208.409 239.242 208.168 239.139C207.944 239.018 207.686 238.958 207.393 238.958H207.006V237.899C207.126 237.865 207.298 237.822 207.522 237.77C207.763 237.718 208.013 237.675 208.271 237.641C208.53 237.589 208.788 237.555 209.046 237.537C209.305 237.503 209.52 237.486 209.692 237.486C210.14 237.486 210.527 237.546 210.854 237.667C211.199 237.787 211.5 238.002 211.759 238.312C211.965 238.571 212.189 238.975 212.43 239.526C212.671 240.077 212.921 240.732 213.179 241.49C213.455 242.23 213.722 243.057 213.98 243.969C214.256 244.882 214.523 245.829 214.781 246.811C215.056 247.775 215.323 248.757 215.582 249.756C215.84 250.737 216.09 251.684 216.331 252.597H216.408C216.976 251.495 217.493 250.367 217.958 249.213C218.44 248.042 218.871 246.88 219.25 245.726C219.629 244.555 219.956 243.41 220.231 242.29C220.524 241.154 220.765 240.069 220.955 239.036L223.874 238.648C224.183 239.44 224.528 240.387 224.907 241.49C225.286 242.575 225.673 243.737 226.069 244.977C226.465 246.2 226.861 247.465 227.257 248.774C227.671 250.083 228.058 251.357 228.42 252.597H228.497C229.169 251.374 229.754 250.221 230.254 249.136C230.753 248.034 231.167 246.983 231.494 245.984C231.838 244.968 232.088 243.978 232.243 243.014C232.415 242.049 232.501 241.085 232.501 240.121ZM237.928 255.361V237.692H241.415V255.361H237.928ZM239.633 228.626L242.009 230.976L239.633 233.327L237.282 230.976L239.633 228.626ZM245.628 239.604L243.639 239.423V238.416L248.314 234.593H249.012L249.089 237.692H253.92L253.687 239.268C253.257 239.32 252.774 239.371 252.241 239.423C251.724 239.458 251.233 239.492 250.768 239.526C250.217 239.578 249.666 239.613 249.115 239.63V251.125C249.115 251.762 249.227 252.296 249.451 252.726C249.692 253.14 250.2 253.346 250.975 253.346C251.388 253.346 251.888 253.338 252.473 253.32C253.059 253.303 253.592 253.277 254.075 253.243V254.457C253.816 254.578 253.481 254.707 253.067 254.845C252.671 254.982 252.232 255.12 251.75 255.258C251.268 255.378 250.785 255.482 250.303 255.568C249.821 255.654 249.373 255.697 248.96 255.697C248.581 255.697 248.194 255.645 247.798 255.542C247.402 255.456 247.04 255.284 246.713 255.025C246.403 254.767 246.144 254.405 245.938 253.94C245.731 253.458 245.628 252.838 245.628 252.081V239.604ZM258.985 237.744C258.985 237.985 258.976 238.321 258.959 238.751C258.942 239.182 258.933 239.518 258.933 239.759C259.329 239.535 259.786 239.285 260.302 239.01C260.836 238.717 261.404 238.45 262.007 238.209C262.627 237.951 263.264 237.735 263.919 237.563C264.59 237.391 265.262 237.305 265.933 237.305C266.691 237.305 267.38 237.417 268 237.641C268.637 237.847 269.18 238.175 269.627 238.622C270.092 239.053 270.454 239.595 270.712 240.25C270.971 240.904 271.1 241.67 271.1 242.549V255.361H267.612V243.091C267.612 242.678 267.578 242.273 267.509 241.877C267.44 241.464 267.294 241.094 267.07 240.766C266.863 240.439 266.562 240.172 266.166 239.966C265.77 239.759 265.236 239.656 264.564 239.656C264.151 239.656 263.695 239.707 263.195 239.811C262.713 239.914 262.222 240.043 261.723 240.198C261.223 240.353 260.733 240.534 260.25 240.741C259.786 240.947 259.364 241.154 258.985 241.36V255.361H255.497V226.378L258.985 225.5V237.744Z" fill="#EEEEEE"/>
<rect x="6.38159" y="267.945" width="315.072" height="73.2544" rx="11.7881" fill="white"/>
<path d="M50.2443 274.469L48.6676 285.945C56.831 285.508 63.3868 291.28 62.7494 300.007C62.0898 309.077 53.6909 317.338 44.2836 317.812L44.073 319.331C44.073 319.331 81.2361 329.182 80.7726 300.261C80.7726 300.261 83.4864 274.432 52.3203 274.432C51.6443 274.432 50.9534 274.444 50.2443 274.469Z" fill="#006600"/>
<path d="M17.385 301.574C17.385 301.574 7.46216 330.278 42.0925 334.628L44.4028 317.832C44.1989 317.846 43.9997 317.86 43.7958 317.862C34.4849 317.997 28.8919 310.412 30.6397 301.738C32.3185 293.408 40.0292 286.714 48.2502 285.999C48.4304 285.982 48.6088 285.976 48.7845 285.965L48.9225 284.969C48.9225 284.969 45.9118 284.309 41.7234 284.309C33.566 284.309 20.9416 286.809 17.385 301.574Z" fill="#CCCCCC"/>
<path d="M46.4983 293.77L48.2615 299.22H53.9675L49.351 302.588L51.1147 308.037L46.4983 304.669L41.8818 308.037L43.645 302.588L39.0291 299.22H44.735L46.4983 293.77Z" fill="#006600"/>
<path d="M91.5068 289.562H94.2619V285.957H91.5068V289.562ZM91.5903 312.868C91.5903 314.67 92.3416 315.425 94.1367 315.425H97.1002V312.952H95.3469C94.7627 312.952 94.4286 312.658 94.4286 312.03V296.898C94.4286 295.095 93.6772 294.341 91.8822 294.341H88.9187V296.814H90.6719C91.2562 296.814 91.5903 297.149 91.5903 297.736V312.868ZM97.8924 304.484C97.8924 310.814 101.608 315.299 107.243 315.299C110.499 315.299 112.586 313.958 113.839 311.652H113.922C113.922 311.652 113.88 312.365 113.88 313.162V315.006C113.88 319.7 110.624 321.629 106.533 321.629C103.444 321.629 100.856 320.162 100.856 320.162L99.7709 322.551C101.817 323.599 104.238 324.227 106.617 324.227C111.793 324.227 116.719 321.629 116.719 314.922V297.736C116.719 297.107 117.053 296.814 117.637 296.814H119.349V294.341H116.427C114.715 294.341 114.047 295.137 114.047 296.646C114.047 297.065 114.047 297.443 114.047 297.443H113.964C113.964 297.443 112.628 293.838 106.993 293.838C101.357 293.838 97.8924 298.155 97.8924 304.484ZM107.66 312.742C103.528 312.742 100.815 309.473 100.815 304.443C100.815 299.413 103.194 296.437 107.285 296.437C111 296.437 113.922 298.323 113.922 304.484C113.922 310.688 111 312.742 107.66 312.742ZM119.979 304.862C119.979 311.401 123.485 315.928 129.121 315.928C134.631 315.928 136.343 311.736 136.343 311.736H136.426C136.426 311.736 136.343 312.281 136.343 313.078C136.343 314.629 137.094 315.425 138.847 315.425H141.769V312.952H140.016C139.432 312.952 139.098 312.658 139.098 312.03V288.514C139.098 286.712 138.346 285.957 136.551 285.957H133.588V288.43H135.341C135.925 288.43 136.259 288.766 136.259 289.353V296.185C136.259 297.065 136.343 297.778 136.343 297.778H136.259C136.259 297.778 134.506 293.838 129.413 293.838C123.903 293.838 119.979 298.197 119.979 304.862ZM129.538 313.371C125.615 313.371 122.901 310.059 122.901 304.862C122.901 299.538 125.948 296.395 129.664 296.395C134.172 296.395 136.343 300.586 136.343 304.862C136.343 310.856 133.045 313.371 129.538 313.371ZM142.349 309.682C142.349 313.874 145.981 315.928 149.487 315.928C154.747 315.928 156.5 311.359 156.458 311.359H156.542C156.542 311.359 156.5 311.988 156.5 312.91C156.5 314.629 157.21 315.425 159.005 315.425H161.885V312.952H160.132C159.548 312.952 159.214 312.658 159.214 312.03V301.928C159.214 297.401 157.627 293.838 150.99 293.838C149.154 293.838 144.144 294.466 144.144 297.401V299.413H146.857V298.071C146.857 296.52 149.905 296.227 150.949 296.227C154.789 296.227 156.375 297.778 156.375 302.179V302.431H155.206C151.575 302.431 142.349 302.682 142.349 309.682ZM145.271 309.515C145.271 304.778 151.867 304.694 155.165 304.694H156.375V305.658C156.375 309.305 153.954 313.497 149.947 313.497C146.816 313.497 145.271 311.484 145.271 309.515Z" fill="#444444"/>
<path d="M173.605 323.808H176.444V313.79C176.444 312.7 176.36 311.946 176.36 311.946H176.444C176.444 311.946 178.197 315.928 183.331 315.928C188.758 315.928 192.724 311.568 192.724 304.904C192.724 298.365 189.218 293.838 183.582 293.838C178.03 293.838 176.36 297.987 176.36 297.987H176.277C176.277 297.987 176.318 297.401 176.318 296.562C176.318 295.095 175.609 294.341 173.814 294.341H170.934V296.814H172.687C173.271 296.814 173.605 297.149 173.605 297.736V323.808ZM176.36 304.946C176.36 298.952 179.658 296.437 183.165 296.437C187.088 296.437 189.802 299.748 189.802 304.904C189.802 310.269 186.754 313.413 183.039 313.413C178.656 313.413 176.36 309.179 176.36 304.946ZM193.852 309.682C193.852 313.874 197.484 315.928 200.99 315.928C206.25 315.928 208.003 311.359 207.962 311.359H208.045C208.045 311.359 208.003 311.988 208.003 312.91C208.003 314.629 208.713 315.425 210.508 315.425H213.388V312.952H211.635C211.051 312.952 210.717 312.658 210.717 312.03V301.928C210.717 297.401 209.131 293.838 202.493 293.838C200.656 293.838 195.647 294.466 195.647 297.401V299.413H198.361V298.071C198.361 296.52 201.408 296.227 202.451 296.227C206.292 296.227 207.878 297.778 207.878 302.179V302.431H206.709C203.078 302.431 193.852 302.682 193.852 309.682ZM196.774 309.515C196.774 304.778 203.37 304.694 206.668 304.694H207.878V305.658C207.878 309.305 205.457 313.497 201.45 313.497C198.319 313.497 196.774 311.484 196.774 309.515ZM215.696 315.425H218.535V304.862H220.455C221.207 304.862 222.209 304.946 222.668 305.784L226.842 313.329C227.802 315.089 228.387 315.425 230.474 315.425H232.436V312.952H231.309C230.182 312.952 229.764 312.742 229.389 312.03L225.59 305.197C224.922 303.94 224.296 303.646 224.296 303.646V303.563C224.296 303.563 224.838 303.353 225.882 302.053L231.935 294.341H228.47L223.085 301.383C222.501 302.137 221.499 302.389 220.706 302.389H218.535V288.388C218.535 286.586 217.784 285.957 215.989 285.957H213.025V288.43H214.778C215.363 288.43 215.696 288.766 215.696 289.353V315.425ZM234.65 289.562H237.405V285.957H234.65V289.562ZM234.734 312.868C234.734 314.67 235.485 315.425 237.28 315.425H240.244V312.952H238.491C237.906 312.952 237.572 312.658 237.572 312.03V296.898C237.572 295.095 236.821 294.341 235.026 294.341H232.062V296.814H233.815C234.4 296.814 234.734 297.149 234.734 297.736V312.868ZM240.493 312.239C240.493 312.239 243.081 315.928 248.55 315.928C252.724 315.928 255.897 313.539 255.897 310.018C255.897 303.018 244.125 304.107 244.125 299.371C244.125 297.317 245.878 296.311 248.8 296.311C250.178 296.311 252.432 296.898 252.432 298.449V299.455H255.104V297.652C255.104 294.676 250.846 293.838 248.717 293.838C244.501 293.838 241.245 295.724 241.245 299.538C241.245 306.329 253.017 305.49 253.017 310.101C253.017 312.323 250.929 313.455 248.592 313.455C244.459 313.455 242.121 310.269 242.121 310.269L240.493 312.239ZM259.463 307.754C259.463 314.796 264.347 315.593 266.768 315.593C267.478 315.593 267.979 315.509 267.979 315.509V312.952C267.979 312.952 267.603 313.036 267.018 313.036C265.432 313.036 262.302 312.407 262.302 307.461V296.73H267.561V294.341H262.302V288.514H259.505V294.341H256.708V296.73H259.463V307.754ZM268.861 309.682C268.861 313.874 272.492 315.928 275.999 315.928C281.259 315.928 283.012 311.359 282.97 311.359H283.054C283.054 311.359 283.012 311.988 283.012 312.91C283.012 314.629 283.721 315.425 285.516 315.425H288.396V312.952H286.643C286.059 312.952 285.725 312.658 285.725 312.03V301.928C285.725 297.401 284.139 293.838 277.502 293.838C275.665 293.838 270.656 294.466 270.656 297.401V299.413H273.369V298.071C273.369 296.52 276.416 296.227 277.46 296.227C281.3 296.227 282.887 297.778 282.887 302.179V302.431H281.718C278.086 302.431 268.861 302.682 268.861 309.682ZM271.782 309.515C271.782 304.778 278.378 304.694 281.676 304.694H282.887V305.658C282.887 309.305 280.465 313.497 276.458 313.497C273.327 313.497 271.782 311.484 271.782 309.515ZM290.83 315.425H293.669V305.323C293.669 304.317 293.752 303.353 294.002 302.473C294.963 298.993 298.052 296.52 301.642 296.52C305.691 296.52 306.192 299.455 306.192 302.766V312.868C306.192 314.67 306.943 315.425 308.738 315.425H311.702V312.952H309.949C309.364 312.952 309.03 312.658 309.03 312.03V302.011C309.03 296.814 307.194 293.838 301.976 293.838C297.05 293.838 294.378 297.233 293.627 299.161H293.544C293.544 299.161 293.627 298.49 293.627 297.652V296.688C293.627 295.095 292.834 294.341 291.081 294.341H288.159V296.814H289.912C290.496 296.814 290.83 297.149 290.83 297.736V315.425Z" fill="#006600"/>
</svg>
